<?xml version="1.0" encoding="UTF-8"?>
<svg id="Image_5" data-name="Image 5" xmlns="http://www.w3.org/2000/svg" viewBox="0 0 1035.95 720.61">
  <defs>
    <style>
      .cls-1 {
        fill: #fff;
      }

      .cls-2 {
        fill: #ffe885;
      }

      .cls-3 {
        fill: #ffce00;
      }

      .cls-4 {
        fill: #a07b45;
      }

      .cls-5 {
        fill: red;
      }
    </style>
  </defs>
  <g>
    <path d="m243.7,678.18c0-8.47-9.66-19.88-18.15-21.16,7.15,6.58,13.58,13,18.15,21.16Zm621.47-283.47c2.41,2.45,2.34,5.94,1.51,9.29-2.17,8.73-5.86,16.78-10.67,24.34-15.45,24.26-32.46,47.35-51.28,69.1-19.18,22.14-39.64,43.04-61.34,62.71-8.08,7.33-16.03,14.79-24.07,22.15-4.56,4.18-9.39,8.03-14.69,11.26-5.28,3.21-6.27,3.02-9.83-1.76-.75-1-1.52-1.98-2.4-3.12-2.09,1.9-2.98,4.34-4.37,6.43-6.08,9.06-14.14,14.98-25.29,15.97-1.6.15-2.8.39-3.16,2.22-2.35,11.9-9.55,20.66-18.77,27.85-9.41,7.35-20.6,9.55-32.25,9.96-8.7.3-16.98-1.44-24.77-5.3-4.63-2.29-8.56-5.47-11.45-9.83-.69-1.04-1.22-2.32-2.93-1.66-5.61,2.18-11.15.53-16.62-.56-8.58-1.71-16.91-4.36-24.66-8.43-15.05-7.89-25.38-19.71-29.61-36.47-1.93-7.64-1.24-15.14.84-22.6,1.92-6.86,4.63-13.41,8.84-19.2,1.48-2.04,1.71-3.67.64-5.94-1.67-3.53-1.71-7.41-1.39-11.24,1.38-16.64,8.41-30.26,21.83-40.4,10.14-7.67,21.65-11.89,34.28-12.57,17.24-.94,34.14.7,49.91,8.52,2.02,1,3.11.64,4.53-1.04,5.75-6.76,12.72-11.84,21.18-14.79,3.25-1.13,3.33-1.32,1.82-4.64-3.33-7.27-6.36-14.66-9.2-22.13-3.68-9.67-7.42-19.32-11.11-28.99-1.59-4.16-1.57-4.17-5.76-2.22-17.1,8.01-34.23,15.94-51.09,24.46-1.99,1-3.77,2-4.91,4.05-10.97,19.55-28.99,26.85-50.09,29.11-11.41,1.22-22.87,1-34.29,1.59-29.44,1.5-57.11,10.03-84.13,21.07-20.17,8.24-40.16,16.93-59.02,27.97-4.31,2.52-4.35,2.47-2.93,7.06,12.6,40.87,21.44,82.57,27.26,124.92.47,3.4.49,6.88.54,10.32.06,4.56-1.86,8.05-5.97,10.24-1.93,1.02-3.8,2.14-5.72,3.16-7.83,4.14-15.7,5.24-23.9.86-8.37-4.47-17.84-4.71-26.89-6.45-18-3.45-36.11-6.31-53.89-10.87-.51-.13-1.07-.07-1.93-.12-.06,1.5,1.13,2.1,1.81,2.96,3.06,3.83,6.22,7.59,7.58,12.47.93,3.35.93,6.55-1.71,9.12-2.61,2.55-5.61,1.95-8.59.44-1.27,1.22-.67,2.75-.86,4.08-.28,2-.68,3.97-1.65,5.72-2.9,5.18-9.34,5.28-12.3.18-1.29-2.21-2.08-4.64-2.52-7.17-.3-1.76-.54-3.54-1.76-5.74-.49,5.52-.91,10.45-1.37,15.38-.59,6.54-2.38,12.82-4.14,19.12-1.79,6.42-7.09,5.65-10.29,2.1-3.71-4.1-6.09-9-8.36-13.97-8.73-19.1-14.38-39.15-18.73-59.63-2.34-11.04-4.26-22.1-4.42-33.42-.04-2.91.08-5.8,1.14-8.59,1.17-3.1,3.36-4.63,6.65-4.59,3.67.05,7.2.88,10.65,2.05,8.07,2.75,16.06,5.75,24.46,7.42,2.51.5,5.01.87,7.54,1.07,3.42.28,5.96,1.69,6.56,5.36.49,3.04,2.3,3.88,5.24,4.26,13.36,1.72,26.76,2.3,40.22,2.32,7.81.01,15.62.62,23.42.91,1.8.07,3.62.5,5.95-.26-10.74-22.81-20.6-45.91-30.16-69.57-8.76,2.79-17.55,5.56-26.32,8.37-13.26,4.25-26.82,6.24-40.78,5.9-9.7-.23-18.04-3.44-25.34-9.78-14.56-12.66-22.67-28.56-24.26-47.79-.85-10.32,1.92-19.78,6.9-28.7,1.76-3.15,3.66-6.22,5.61-9.52-5.75-4.54-10.92-9.61-15.56-15.2-4.65-5.59-8.88-11.48-12.81-18.02-2.53,2.01-3.6,4.78-5.44,6.9-1.72,1.97-3.48,3.84-6.41,3.36-3.13-.51-4.44-2.84-5.37-5.54-.78-2.28-.9-4.62-.85-6.99.14-7.28,1.06-14.5,2.2-21.67.52-3.35.22-6.41-.96-9.56-1.32-3.55-2.32-7.22-3.45-10.81-2.1.23-2.46,1.84-3.1,2.99-3.2,5.7-6.18,11.52-9.41,17.2-1.61,2.83-3.36,6.11-7.32,5.49-3.95-.62-5.42-4.01-6.34-7.43-1.74-6.43-1.25-12.98-.66-19.5.36-3.92.97-7.81,1.51-12.11-1.13.42-1.84.58-2.44.93-21.65,12.81-37.07,30.41-41.35,55.88-3.87,23.06,2.59,42.74,20.98,57.94,11.47,9.49,23.26,18.62,33.16,29.88,7.4,8.41,13.48,17.57,17.19,28.19,1.45,4.15,3.77,7.84,5.85,11.67,6.2,11.4,9.83,23.4,8.25,36.59-.24,2-.52,4-1.44,5.77-1.27,2.42-3.47,2.62-5.29.59-1.24-1.39-1.71-3.18-2.38-4.87-1.47-3.65-2.48-7.52-5.26-11.66-.73,4.84-1.24,8.88-1.96,12.88-1.75,9.78-5.28,18.87-11,27.04-3.34,4.77-7.67,8.18-13.55,9.32-1.63.31-3.32.59-4.86.09-2.47-.81-4.82-.96-7.43-.64-3.75.46-5.42-1.54-4.77-5.27.28-1.58.89-3.16,1.65-4.58,1.29-2.39,2.71-4.73,4.27-6.96,5.73-8.25,8.17-17.3,6.95-27.36-1.82-.01-1.71,1.64-2.19,2.65-1.91,3.94-4.38,7.52-6.73,11.2-5.34,8.34-13.27,12.68-22.59,14.9-2.66.64-5.4.74-8.12.18-1.91-.39-3.39-1.35-3.86-3.36-.5-2.18.24-3.96,2.1-5.18,1.37-.89,2.85-1.6,4.24-2.46,10.01-6.24,17.56-14.6,21.81-25.71,3.98-10.39,2.63-20.34-2.89-29.8-3.23-5.53-7.52-10.24-12.34-14.45-5.9-5.14-12.02-9.99-18.38-14.53-7.43-5.29-14.21-11.3-20.29-18.11-15.39-17.25-23.15-37.12-20.85-60.45,1.98-20.15,7.59-39.09,18.07-56.59,14.11-23.58,34.39-39.52,59.75-49.37,4.91-1.9,9.86-3.66,14.98-4.96,5.12-1.31,10.29-2.11,16.06-1.92-3.62-12.78-4.28-25.45-4.48-38.14-.27-16.91.12-33.79,3.92-50.4,4.91-21.51,13.58-41.34,26.29-59.39,1.97-2.81,3.96-5.6,5.95-8.41-7.03-4.09-8.22-7.49-5.51-14.97,2.12-5.84,6.19-10.2,10.73-14.19,11.11-9.78,23.99-16.38,38.12-20.37,5.56-1.57,10.02-3.84,14.1-8.14,18.87-19.92,41.93-34.08,66.18-46.36,14.57-7.38,29.23-14.74,45.04-19.16,11.88-3.32,23.55-7.17,35.19-11.22,7.4-2.57,14.94-2.56,22.51-.36,10.6,3.08,12.71,8.11,7.22,17.76-2.08,3.67-4.85,6.81-7.76,9.8-6.22,6.39-12.63,12.57-19.62,18.11-6.16,4.89-11.61,10.43-16.02,16.98-2.13,3.18-3.12,6.5-2.61,10.29.68,5.04,1.38,10.07,1.92,15.13.19,1.75.79,2.55,2.65,2.63,1.41.06,2.85.5,4.2.98,1.29.47,2.01,1.55,1.99,2.97-.03,1.42-.87,2.45-2.13,2.89-1.53.53-3.15.81-4.74,1.13-2.48.5-3.93,1.78-3.54,5.1,8.14-.78,14.13,3.01,18.32,10.38,3.33-2.74,5.19-6.53,9.38-8.38-.21,5.97-5.13,9.38-7.17,15.07,4.88-1.9,7.38-5.8,11.35-7.37,1.31,1.07.19,1.92-.32,2.72-1.96,3.11-4.45,5.75-7.36,7.97-1.11.84-1.92,1.61-1.08,3.69,3.17-2.93,6.12-5.66,9.07-8.4.29.24.58.47.87.71-1.5,4.1-3.67,7.83-7.49,10.38-1.12.74-2.1,1.13-2,2.72.52,8.71.32,17.4-1.2,26.04.35.16.7.31,1.04.46,3.97-5.7,7.88-11.44,11.9-17.1,4.12-5.8,9.09-10.87,13.98-16,4.89-5.11,9.94-10.06,15.29-14.59-.75-1.78-2.17-2.7-3.25-3.91-3.41-3.85-6.11-8.11-7.46-13.14-2.21-8.25.18-15.11,7.15-20.07,4.61-3.29,9.76-5.6,14.8-8.1,3.75-1.86,7.51-3.67,10.99-6,4.72-3.15,5.33-4.99,3.74-10.59-1.55-5.45-4.38-10.36-6.73-15.47-2.86-6.23-3.23-12.63-2-19.18,2.15-11.38,8.64-19.44,19.21-24.08,10.35-4.54,21.18-7.75,32.26-9.75,15.96-2.88,31.55-6.89,46.65-12.77,2.71-1.06,5.49-2.01,8.41-2.18,3.1-.18,4.36,1.85,2.84,4.56-1.39,2.47-3.77,3.84-6.19,5.17-15.67,8.65-32.41,14.55-49.63,19.23-8.59,2.34-17.14,4.8-25.16,8.75-3.26,1.6-6.49,3.3-9.23,5.74-3.09,2.75-4.41,6-3.34,10.24,1.09,4.32,2.91,8.21,5.65,11.67,3.61,4.55,7.35,9.01,11.03,13.51,2.19,2.67,4.25,5.43,5.67,8.62,1.58,3.54,1.19,6.75-1.55,9.52-1.53,1.55-3.17,3-4.85,4.38-7.3,5.99-14.67,11.91-21.94,17.94-1.4,1.16-3.3,2.08-3.58,4.17.85.56,1.33.23,1.71-.09,40.56-34.64,87.34-56.97,138.75-70.15,23.93-6.14,48.09-11.22,72.37-15.72,21.4-3.97,43.01-4.05,64.64-2.41,3.71.28,7.03-.11,10.53-1.62,9-3.89,18.17-7.39,28.03-8.57,6.24-.75,12.36-.33,18.18,2.11,2.27.96,4.87,1.93,4.32,5.39-.25,1.52,1.15,1.53,2.15,1.86,2.23.74,4.51,1.38,6.66,2.33,1.47.64,2.93,1.54,4.06,2.67,2.91,2.9,2.05,5.9-2.02,6.56-4.29.69-8.66,1.1-13.01,1.16-7.85.09-15.57.95-23.25,2.5-1.62.33-3.17.71-5.13,1.99,8.67-.66,16.7-.31,24.68,1.3,6.64,1.35,12.94,3.57,18.86,6.83,3.56,1.95,6.61,4.52,8.75,8.01,1.03,1.68,2.27,3.47,1.06,5.55-1.24,2.15-3.43,1.9-5.36,1.54-4.46-.81-8.89-1.82-13.32-2.8-17.33-3.86-34.83-5.11-52.53-3.75-.86.07-1.82-.09-2.56.72-.38,1.29.8,1.38,1.51,1.69,7.75,3.35,14.27,8.64,21.13,13.39.59.41,1.14.9,1.69,1.38,1.54,1.34,3.09,2.79,2.4,5.07-.78,2.56-3.05,2.83-5.3,2.94-8.46.4-16.66-.81-24.53-4.02-7.22-2.96-14.43-5.95-21.64-8.95-3.22-1.34-6.51-2.22-10.06-1.96-1.62.13-3.27-.03-4.9-.13-20.77-1.26-41.34.3-61.87,3.7-22.24,3.69-44.27,8.18-65.79,14.94-24.37,7.65-47.22,18.73-69.52,31.01-7.64,4.21-15.41,8.18-22.6,13.15-1.62,1.12-3.51,1.95-4.78,3.97,2.69,3.07,5.56,6.08,8.14,9.32,9.16,11.45,16.61,23.87,20.27,38.2,3.12,12.18,3.5,24.4-.49,36.55-2.31,7.04-6.66,12.31-12.86,16.32-8.08,5.21-16.79,7.67-26.37,6.87-1.97-.16-4.2-.23-5.8-1.2-2.42-1.47-4.2-1.06-6.43.21-4.42,2.51-9,4.73-13.5,7.09-1.58.83-3.27,1.51-4.66,2.98,2.32,2.41,5,2.85,7.96,2.76,13.2-.41,25.56,2.98,37.22,8.87,7.11,3.59,12.94,8.76,15.94,16.46.81,2.06,2.03,3.18,4.35,3.43,13.27,1.46,24.07,7.62,32.78,17.6,1.17,1.35,2.62,1.75,4.23,2.18,3.15.84,6.24,1.93,9.37,2.84,12.42,3.61,21.04,11.83,27.46,22.66,5.11,8.65,8.44,18.09,11.92,27.45.31.84.35,1.79,1.28,2.42,1.42.36,2.17-.91,3.1-1.62,9.63-7.29,20.52-12.39,31.15-17.88,12.43-6.4,25.07-12.39,37.66-18.45,7.39-3.55,15.14-6.13,23.05-8.22,1.92-.51,3.92-.73,5.88-1.1,4.31-.8,6.94.93,9.33,4.71,3.35,5.28,5.2,10.6,4.81,16.9-.28,4.43,1.62,8.52,3.47,12.48,3.85,8.23,7.62,16.49,11.64,24.63,6.17,12.5,10.89,25.63,16.79,38.3,1.87-.31,2.79-1.8,4.06-2.74,2.48-1.85,4.93-3.72,7.84-4.87,4.65-1.82,7.46-1.24,10.69,2.53,2.01,2.34,3.78,4.88,5.64,7.34,1.31,1.73,2.64,3.44,4.53,4.59.24-.25.64-.56.6-.66-6.22-12.81-8.11-26.7-9.95-40.56-1.27-9.61-.92-19.22,1.98-28.6,1.62-5.22,3.62-10.27,6.36-15.01,2.21-3.83,4.95-7.19,8.49-9.85,6.6-4.97,12.96-3.21,16.1,4.53,1.71,4.23,2.57,8.67,2.76,13.26.33,7.74.8,15.48,1.26,24.08,1.83-1.72,3.1-2.91,4.36-4.12,6.22-6.04,13.28-10.66,21.66-13.18,2.48-.74,4.98-1.08,7.53-.9,4.32.3,6.57,2.91,6.12,7.26-.46,4.41-2.23,8.43-4.4,12.23-5.42,9.49-11.95,18.23-18.75,26.75-6.8,8.52-13.38,17.22-20.84,25.19-.31.33-.46.81-.98,1.75,2.66-.68,4.25-2.15,6-3.3,13.52-8.85,26.67-18.27,40.47-26.7,11.98-7.32,24.73-12.94,38.07-17.33,4.91-1.62,9.96-1.92,15-2.41,5.24-.51,9.09,2.45,12.39,5.79Zm-3.56,7.37c.58-3.74-.56-4.96-4.33-5.04-3.95-.08-7.47,1.34-10.87,3.11-24.44,12.67-44.16,30.46-58.14,54.28-5.88,10.01-11.51,20.2-16.66,30.61-8.33,16.83-19.4,31.45-33.11,44.23-6.23,5.82-12.44,11.68-18.26,17.95-9.63,10.39-15.96,22.4-18.73,36.29-.35,1.75-.98,3.49-.15,5.62,3.56-1.13,6.18-3.67,8.96-5.86,9.86-7.77,18.59-16.8,27.91-25.17,42.77-38.46,80.3-81.43,111.32-129.97,4.31-6.75,8.23-13.69,10.74-21.34.51-1.55,1.07-3.11,1.32-4.71Zm-21.2-5.63c-10.43,3.31-20.98,6.11-29.4,13.49-6.42,5.63-12.51,11.61-17.98,18.17-9.7,11.63-17.41,24.55-24.43,37.92-5.06,9.63-10.12,19.27-15.32,28.83-6.6,12.12-15.19,22.54-26.47,30.65-3.24,2.33-6.4,4.79-9.38,7.44-10.15,9.03-18.39,19.49-23.91,32.02-2.75,6.22-2.19,11.8,2.44,17.19.44-1.22.9-2.2,1.15-3.24,3.46-14.93,11.04-27.53,21.75-38.32,6.4-6.44,12.88-12.79,19.39-19.11,11.03-10.74,19.87-23.02,26.92-36.71,5.73-11.13,11.77-22.11,17.98-32.98,8.65-15.14,20.09-27.97,33.73-38.81,7.51-5.98,15.27-11.63,23.53-16.54Zm-45.33,22.31c-1.07-.78-1.6-.05-2.13.31-8.11,5.43-16.19,10.88-24.27,16.35-.74.5-1.53,1.05-2.03,1.76-3.11,4.41-3.46,16.23-.53,21.96,8.42-14.51,17.35-28.41,28.96-40.38Zm-27.38-338.52c1.34.37,2.65,1.24,4.37.26-1.21-2.16-3.17-3.47-5.15-4.68-3.26-2-6.73-3.56-10.38-4.74-9.25-3.02-18.75-4.11-28.46-3.9-7.83.16-15.53,1.64-23.33,2-.96.05-2.22.65-2.86-1.45,4.46-3.5,9.66-5.88,15.18-7.53,11.88-3.57,23.98-5.85,36.46-5.64,3.55.07,7.14.24,10.9-.96-1.79-2.13-4-2.49-6.04-3.07-9.74-2.75-19.42-1.54-29.1.52-8.55,1.83-16.67,5.07-25.03,7.48-1.96.56-3.88,1.19-7.16.06,16.73-9.32,33.41-14.49,51.39-16.16-1.2-1.47-2.63-1.62-4.08-1.75-4.36-.4-8.7-.37-13.02.5-8.96,1.79-17.36,5.2-25.7,8.81-2.33,1.02-4.71,2.34-7.26,2.11-11.05-1.04-22.12-.42-33.19-.59-10.92-.17-21.76,1.09-32.51,2.95-20.04,3.47-39.88,7.93-59.68,12.52-43.29,10.03-84.48,25.24-121.71,50.06-10.42,6.96-20.45,14.43-30.74,22.35,3.01,3.8,6.55,5.77,9.59,8.31,2.08,1.74,4.1,4.32,6.46,4.75,2.53.45,4.26-2.91,6.59-4.26,1.25-.73,2.37-1.68,3.62-2.42,25.18-14.92,50.82-28.91,78.45-38.88,24.18-8.73,49.16-14.14,74.46-18.27,19.41-3.17,38.87-5.25,58.58-4.37,12.26.56,24.21,2.2,35.42,7.59,3.92,1.89,8.01,3.46,12.1,4.93,5.71,2.07,11.58,3.35,18.44,3.13-9.34-8.57-21.01-11.99-30.37-19.13,3.07-3.06,5.3-4.3,10.17-5.22,8.43-1.59,16.94-1.95,25.5-1.55,12.95.6,25.61,2.85,38.09,6.24Zm-8.78,336.84c6.55-9.2,12.81-18.51,16.62-29.34-5.69,5.13-10.12,11.23-14.35,17.53-2.45,3.65-2.72,7.56-2.27,11.81Zm1.38,45.23c1.61-2.05-.74-4.41-.75-6.71,0-1.2-.2-2.4-.31-3.6-.31-.01-.62-.01-.92-.01-2.72,5.5-5.44,11-8.55,17.3,1.89-.82,2.86-1.21,3.81-1.66,2.65-1.25,4.98-3.12,6.72-5.32Zm-19.76-23.63c10.41-26.58,23.23-50.13,45.55-67.14-21.75,4.49-45.12,38.6-45.55,67.14Zm19.63,31.83c.04-.08-.15-.28-.4-.68-6.32,3.38-12.86,6.37-19.72,8.57-2.03.66-2.1,2.09-2.4,3.73-2.56,13.87-9.3,25.04-21.34,32.74-3.36,2.15-6.72,4.31-10.18,6.28-2.9,1.66-5.32,3.79-7.39,6.35-5.24,6.51-5.4,11.28-.66,18.43,1.08-.01,1.56-.88,2.06-1.59,6.31-9.07,14.56-16.14,23.32-22.7,3.2-2.39,6.29-4.9,9.16-7.7,12.67-12.28,19.63-28.16,27.55-43.43Zm-14.25-4.69c4.96-6.68,8.19-14.13,10.91-21.89-2.72,2.2-6.73,2.53-8.04,6.23-1.77,5.04-3.4,10.09-2.87,15.66Zm.02-118.87c.41-.77,1.15-1.63.41-2.45-.95-1.05-2.04-.32-2.94.21-4.03,2.35-6.97,5.77-9.23,9.78-6.91,12.23-9.76,25.31-8.02,39.3.53,4.32,1.08,8.65,1.92,12.92,1.34,6.87,2.31,13.85,5.21,20.34-.12-13,.39-25.88,2.35-38.6,2.19-14.11,3.36-28.54,10.3-41.5Zm-.61,54.45c.23-9.18-.43-18.32-1.67-27.45-3.75,14.99-5.07,30.22-4.97,45.63,2.15-4.43,3.82-8.96,5.61-13.44.61-1.55.99-3.11,1.03-4.74Zm-2.83,70.31c-1.67-3.48-1.3-7.36-1.11-12.24-2.42,3.02-4.09,5.13-5.79,7.22-1.72,2.12-3.49,4.2-5.88,5.61-1.59.94-3.31,1.73-5.11.61-1.96-1.21-2.33-3.19-1.93-5.27.43-2.27,1.05-4.5,1.77-7.49-2.69,1.83-4.66,3.38-6.83,4.59-2.33,1.29-4.84,2.98-7.52.79-1.68-1.37-1.35-4.09.78-7.47,2.54-4.03,5.59-7.59,9.64-10.22,2.72-1.77,5.37-3.64,8.62-5.86-4.69-3.77-7.54-8.23-10.88-12.27-3.18-3.87-4.32-4.11-8.68-1.48-5.22,3.16-9.5,7.3-12.55,12.61-2.63,4.57-5.91,9.44-5.7,14.5.19,4.88,4.08,9.24,7.41,13.04,4.6,5.23,9.9,9.57,17.72,8.62,7.2-.88,14.46-1.3,21.5-3.23,1.56-.43,3.25-.51,4.54-2.06Zm.14-21.6c-4.97-2.23-5.03-2.28-7.36.76-2.77,3.62-4.87,7.64-6.6,11.84-.6,1.47-1.41,2.9-.5,5.19,5.63-5.55,9.56-11.94,14.46-17.79Zm-8.2,30.53c-5.29-.43-5.49-.47-6.31,3.57-1.96,9.54-7.6,16.25-15.72,21.13-3.26,1.96-6.67,3.67-9.94,5.6-6.61,3.9-11.44,9.36-14.43,16.47-1.19,2.84-.7,4.85,2.28,6.3.37-.68.8-1.27,1.04-1.92,2.5-7.03,7.42-11.84,13.77-15.48,3.45-1.98,6.66-4.37,10.04-6.48,10.87-6.8,15.91-17.39,19.27-29.19Zm-3.83-32.36c.58-.53,1.57-.96,1.02-3.02-5.75,5.37-13.69,7.62-16.5,15.58,5.79-3.44,10.55-8.11,15.48-12.56Zm-9.22,42c1.62-2.55,2.83-5.27,2.69-8.64-5.96.59-11.55,1.48-17.06-.24-1.6-.5-2.35.32-2.86,1.65-.51,1.35-.98,2.73-1.58,4.05-5.19,11.58-12.69,21.09-24.25,26.94-2.23,1.13-4.5,2.19-7.06,3.43,4.3,3.32,8.29,6.4,12.8,9.87,3.34-10.57,10.05-17.37,19.06-22.13,2.41-1.27,4.79-2.59,7.15-3.94,4.67-2.67,8.24-6.5,11.11-10.99Zm-21.57-8.87c.61-1.64.49-2.66-.85-3.74-4.5-3.61-7.2-8.52-9.84-14.58-1.93,3.74-1.77,7.04-2.04,10.26-.41,5.09-.98,5.48-5.97,4.88-7.35-.88-14.49.29-21.31,2.99-4.62,1.83-4.87,2.77-3.06,7.44,2.76,7.09,5.56,14.16,8.36,21.24,1.83,4.59,2.06,4.72,6.7,2.55,13.7-6.39,22.8-16.94,28.01-31.04Zm-5.59,71.68c1.01-1.55.25-2.64-.37-3.98-4.63-9.92-11.62-17.91-20.05-24.73-.89-.73-1.6-2.03-3.63-1.5,6.1,14.34,11.02,29.05,17.91,44.09,1.93-5.48,3.57-9.92,6.14-13.88Zm-1.04-115.93c1.02-1.75,1.27-3.06.35-4.95-1.97-4.08-3.82-8.24-5.3-12.51-1-2.86-2.64-3.35-5.33-2.99-5.11.67-9.89,2.42-14.48,4.55-11.37,5.27-20.1,13.48-26.14,24.49-.86,1.58-1.66,3.1-.78,5.11,4.27,9.76,8.42,19.58,12.76,29.7,3.54-2.51,7.08-4.26,11.01-5.2,4.42-1.06,8.83-2.09,13.42-1.88,2.2.1,3.11-.64,3.37-3.03,1.31-11.87,5.12-22.97,11.12-33.29Zm-5.37,149.09c1.1-2.6,1.26-4.61-.11-7.1-4.36-7.97-8.17-16.21-11.48-24.67-9.65-24.68-20.03-49.07-28.81-74.08-.6-1.71-1.49-3.33-2-5.06-.74-2.45-2.24-2.43-4.21-1.7-7.67,2.84-13.96,7.62-19.42,13.63-1.53,1.68-1.39,2.97-.07,4.7,2.23,2.93,3.6,6.33,4.29,9.93.72,3.78.93,7.6-.83,11.21-1.84,3.77-5.71,6.1-9.14,5.59-4.22-.63-7.52-4-8.06-8.43-.31-2.53.04-5.03.62-7.55.91-3.92,2.84-7.43,4.3-11.17-1.25-1.56-3.05-2.04-4.68-2.79-5.14-2.35-10.54-3.92-16.1-4.87-14.82-2.53-29.7-3.61-44.15,1.55-20.13,7.19-32.64,21.07-35.54,42.75-.47,3.44-.46,6.88.7,10.23.51,1.47,1.37,2.11,2.87,1.38,1.84-.89,3.79-1.32,5.79-1.41,4.19-.2,7.32,2.07,7.63,5.37.33,3.59-2.54,6.75-6.63,7.24-2.2.27-4.46.21-6.34-1.04-2.54-1.7-3.87-.57-5.19,1.58-4.92,8.02-8.03,16.66-8.93,26.04-.22,2.35,0,4.7.46,7.04,3.2,16.54,12.92,28.17,27.5,35.86,8.72,4.59,18.21,7.19,27.91,8.88,1.96.34,3.98.57,5.96.54,3.54-.06,4.38-1.01,4.29-4.6-.06-2.37-.09-4.72.74-6.99,1.47-4.02,4.18-5.71,7.36-4.6,3.62,1.27,5.39,5.09,3.82,8.9-.75,1.81-1.85,3.63-3.25,4.97-2.09,2-1.65,3.64-.21,5.65,3.79,5.25,9.15,8.16,15.07,10.22,9.39,3.27,19.04,3.08,28.52,1.03,16.8-3.62,27.81-14.1,33.71-30.12.87-2.39.86-4.14-2.33-4.74-2.5-.46-4.77-1.74-6.57-3.65-3.79-4.02-3.67-9.44.29-12.43,3.86-2.91,8.63-1.79,11.66,2.73,1.66,2.47,2.44,5.27,2.87,8.16.24,1.63,1.11,2.11,2.59,2.01,2.2-.15,4.27-.82,6.31-1.59,9.01-3.43,15.06-9.75,18.79-18.6Zm-3.43-174.31c0-2.75-1.36-4.55-2.23-6.49-1.97-4.38-2.78-4.73-7.48-3.58-.87.22-1.72.57-2.57.87-15.19,5.26-25.53,15.98-33.51,29.48-2.51,4.23-2.21,8,.83,12.21,9.25-19.05,24.58-29.46,44.96-32.49Zm-6.62-15.35c-.86-2.03-1.59-3.87-2.42-5.66-2.29-4.96-2.37-5.11-7.2-3.11-15.32,6.34-26.94,16.72-34.48,31.63-2.18,4.33-2.29,8.23.97,12.5,9.53-18.03,23.18-30.4,43.13-35.36Zm-7.87-15.28c.55-2.74-2.34-6.22-3.83-9.32-3.1-6.46-5.41-13.06-4.8-20.42.28-3.36-1.14-6.32-2.97-9.15-3.71-5.77-3.66-5.9-10.39-4.12-7.91,2.08-15.59,4.81-23.05,8.21-16.2,7.36-31.98,15.56-47.83,23.63-7.65,3.9-7.55,3.95-6.68,12.8.27,2.69.93,4.59,3.54,6.12,4.25,2.47,6.6,6.64,7.86,11.36,1.78,6.59,1.65,13.27.44,20.86,11.4-5.18,21.37-11.67,32.81-14.88,2.11-.59,2.19-2.06,1.49-3.85-1.31-3.39-2.54-6.82-3.17-10.41-.23-1.36-.8-3.12,1.03-3.78,2-.72,2.93.86,3.66,2.39.63,1.31,1.22,2.64,1.73,3.99,2.44,6.46,4.82,12.93,7.3,19.37.55,1.44.58,3.22,2.37,4.23.7-1.3,1.38-2.56,2.06-3.82,6.78-12.82,17.15-21.86,29.76-28.66,2.98-1.6,8.05-1.45,8.67-4.55Zm-15.37,223.93c.69-2.91-.59-5.05-2.17-7.04-1.01-1.27-2.34-1.7-3.79-.53-1.36,1.11-1.46,2.39-.53,3.83,1.49,2.29,3.7,3.27,6.49,3.74Zm-37.39-90.7c2.51-.07,4.75-3.31,4.58-7.07-.21-4.39-1.33-8.52-4.58-12.51-2.71,4.09-3.97,8.03-4.55,12.15-.57,3.99,1.72,7.5,4.55,7.43Zm-41.77,106.12c.05-.55-.02-1.2-.57-1.17-.84.04-.84.94-.99,1.56-.06.24.18.77.35.81.95.18.99-.64,1.21-1.2Zm-16.91-191.48c3.45-7.22,4.35-14.88,3.03-22.85-.76-4.62-3.55-7.01-7.74-8.03-2.1-.51-4.32-.75-6.48-.71-4.53.08-9.04.57-13.55,1.22-8.65,1.23-17.36,2.19-26,.2-6.94-1.59-13.31-4.77-19.71-7.81-3.78-1.79-7.59-3.46-11.7-4.37-4.82-1.07-9.36-.41-13.7,1.93-1.99,1.07-2.6,2.15-1.01,4.2,2.47,3.18,4.13,6.83,5.07,10.76.75,3.15.97,6.3-.22,9.74-1.7-.99-1.71-2.37-2.05-3.45-1.01-3.13-2.39-6.09-3.92-8.98-5.69-10.68-14.43-15.86-26.67-14.63-2.85.29-5.69.69-8.32,2.82,1.94,2.84,3.79,5.49,5.58,8.18,1.92,2.87,3.64,5.87,4.94,9.07,1.14,2.82,2.56,5.59,2.17,8.83-4.42-5.21-8.76-10.37-12.22-16.05-5.48-8.99-13.44-12.2-23.47-11.63-.9.05-1.81.02-2.72.07-28.32,1.63-55.72,7.42-82.03,18.13-5.73,2.33-11.35,4.88-16.42,8.48-1.11.78-2.69,1.25-2.77,3.12,9.85,7.08,18.58,15.28,25.53,25.38-1.4.93-1.92.26-2.45-.13-10.6-7.6-20.18-16.6-31.77-22.88-2.62-1.41-5.11-2.7-8.04-2.93-4.9-.37-9.77-.17-14.66.54-22.03,3.24-41.63,12.4-59.99,24.54-9.87,6.53-18.96,14.06-27.33,22.43-1.14,1.14-2.66,2.22-2.81,4.52,4.39-1.15,8.37-.63,12.18.61,9.38,3.06,17.5,8.17,23.21,16.34,8.32,11.9,12.6,25.3,13.39,39.75.37,6.76-1.6,12.93-6.26,18.06-1.89,2.07-4.1,3.62-7,3.77-1.13.06-2.19-.44-2.5-1.66-.25-.99.33-1.76,1.21-2.19,7.56-3.67,9.13-10.36,8.72-17.83-.73-13.17-4.88-25.31-12.4-36.11-5.15-7.41-12.52-12.07-21.21-14.41-7.02-1.89-12.96.19-17.45,5.87-3.79,4.79-6.4,10.25-6.89,16.37-1.9,23.71,7.13,42.47,26.16,56.53,3.58,2.65,7.7,4.09,12.11,4.53,7.62.77,15.28.81,22.83-.43,20.34-3.35,39.86-9.59,58.6-18.08,16.22-7.36,31.42-16.7,46.92-25.43,23.63-13.32,48.42-24.05,73.75-33.59,28.46-10.73,57.77-16.83,88.36-16.42,9.78.12,19.6-.94,29.21-3.09,10.91-2.43,20.61-7.13,27.91-15.83,4.22-5.02,7.76-10.57,10.58-16.47Zm-11.28-37.55c.59-1.21.21-2.06.02-2.93-2.26-10.76-6.86-20.64-11.5-30.5-7.24-15.41-19.31-24.64-36.05-27.72-2.98-.55-5.43-1.79-7.32-4.28-1.86-2.47-4.24-4.47-6.67-6.39-6.27-4.96-13.25-8.23-21.28-8.96-4.97-.45-8.27-2.62-10.1-7.59-2.24-6.08-7.21-10.04-12.8-12.85-10.66-5.35-21.98-8.64-33.99-8.61-4.42.01-8.39-.88-11.63-3.69-2.21-1.93-3.89-1.84-6.21-.48-11.26,6.64-22.55,13.24-33.92,19.7-2.33,1.32-3.13,3.03-3.55,5.53-3.42,20.28-16.87,32.44-34.32,40.71-8.68,4.1-18.35,4.76-27.73,2.23-9.83-2.64-20.1-3-29.77-6.3-6.05-2.06-11.96-4.35-16.95-8.47-10.94-9.03-10.74-22.98.44-31.74,4.2-3.29,9.03-5.33,14.12-6.86,10.81-3.25,21.89-5.13,33.04-6.71,5.82-.82,11.59-1.11,17.3.38,2.03.53,3.69.43,5.68-.47,6.63-3,12.97-2.74,18.76,2.32,2.88,2.52,3.23,2.38,5.54-.56,9.48-12.03,19.7-23.34,31.84-32.74,2.14-1.66,2.03-2.85.68-4.88-6.33-9.49-14.83-16.86-23.33-24.25-.17-.14-.63.04-1.11.09-.73,1.97-1.49,4.01-2.26,6.04-3.77,9.89-8.48,19.29-14.96,27.71-3.68,4.78-7.75,9.16-12.95,12.34-11.34,6.91-21.69,3.9-27.65-7.97-.78-1.54-.79-3.61-2.7-4.5-.54.24-1.06.41-1.51.69-11.09,6.85-27.63,4.53-34.98-12.56-3.25-7.57-3.85-15.49-2.26-23.52,2.43-12.23,7.91-22.61,18.91-29.29,5.85-3.56,12.14-4.45,18.87-2.74,2.44.62,4.72,3.51,6.87,2.27,2.2-1.26,2.34-4.72,3.51-7.16,6.37-13.38,13.54-26.16,26.12-34.9,1.83-1.27,2.34-3.1,1.81-5.24-1.83-.72-3.63.28-5.42-.02-1.51-.26-2.85-.74-3.21-2.46-.32-1.58.16-2.94,1.54-3.76,1.4-.82,2.9-1.51,4.4-2.12,4.62-1.87,4.67-1.85,4.11-7.05-.44-4.16-.93-8.31-1.5-12.44-.76-5.5.63-10.37,3.76-14.93,4.56-6.66,9.95-12.49,16.25-17.52,7.54-6.02,14.45-12.72,21.08-19.71,2.26-2.38,4.37-4.88,5.92-7.8,2.68-5.05,2.13-6.61-3.14-8.44-6.18-2.14-12.42-2.27-18.74-.43-17.99,5.22-34.41,13.59-49.45,24.67-14.92,11-29.5,22.43-44.8,32.91-14.96,10.24-30.73,18.56-48.52,22.77-7.24,1.71-14.38,3.84-21.47,6.08-12.77,4.03-24.56,9.94-34.63,18.94-4.1,3.67-7.81,7.68-9.17,13.23-1.04,4.24.71,6.04,4.91,4.79,2.75-.81,5.31-2.3,7.9-3.6,4.7-2.37,9.29-5.08,14.55-5.97,2.77-.46,6.05-1.6,7.98,1.46,1.7,2.69-.02,5.25-1.52,7.54-5.77,8.82-11.3,17.81-17.45,26.35-11.54,16.01-20.86,33.2-28.63,51.28-5.12,11.9-7.19,24.18-5.66,37.22,2.48,21.2.12,41.7-10.64,60.68-2.78,4.9-4.96,10.11-6.83,15.43-4.71,13.31-7.29,26.98-6.34,41.16.14,2.06.03,4.31,2.1,6.18,1.8-1.87,2.73-4.02,3.75-6.1,3.3-6.69,6.83-13.24,11.11-19.36,2.2-3.14,4.62-6.11,8.05-8,5.02-2.75,9.06-.81,9.94,4.87.51,3.24.15,6.5-.35,9.76-2,12.91-4.72,25.73-5.35,38.84-.13,2.85-.35,5.68.73,8.26,1.21.2,1.7-.35,2.1-.96,2.22-3.32,4.38-6.68,6.65-9.97,2.36-3.44,4.67-6.96,7.92-9.67,4.06-3.39,7.93-3.09,11.44.83,1.95,2.19,3.38,4.71,4.76,7.28,4.72,8.81,9.42,17.63,15.1,25.87,2.64,3.83,3.13,3.92,6.65.8,6.12-5.43,12.49-10.54,19.15-15.3.93-.67,2.43-.93,2.43-2.53-15.89-11.53-21.2-25.35-16.54-42.98,6.78-25.62,34.86-43.65,60.94-39.11,21.25,3.7,34.21,21.9,31.05,43.32-.65,4.46-2.57,8.56-3.56,13.25,4.62.59,9.09.51,13.06,2.41,2.22,1.07,3.66.46,5.35-.95,4.79-3.97,10.26-6.83,15.93-9.34,7.98-3.54,16.16-6.52,24.5-9.07,21.98-6.74,44.38-11.06,67.44-11.45,5.47-.09,10.93.2,16.02,2.48,1.57.71,2.7.28,4.05-.39,10.4-5.13,20.74-4.26,30.9.65,1.61.77,2.81,1.29,4.45.18,8.92-6.02,18.18-5.12,27.52-1.12,5.67,2.43,11.28,5,16.96,7.42,4.91,2.08,10.05,2.8,15.4,2.94,9.88.26,19.43-2.44,29.06-2.45Zm-24.05,154.61c.71-.2,1.32-.76,1.32-1.47,0-.77-.72-1.22-1.47-1.28-1.78-.16-3.49-.01-4.74,1.56,1.37,1.64,3.07,1.71,4.89,1.19Zm-10.64-527.12c1.63-.81,3.66-1.16,4.7-3.61-3.43.13-6.06,1.46-8.62,2.63-13.97,6.39-28.64,10.24-43.71,13.02-11.24,2.07-22.32,5.03-32.83,9.7-9.34,4.14-14.67,11.36-16.32,21.56-.99,6.07.42,11.5,2.84,16.88,2.09,4.63,4.69,9.04,6.13,13.95,2.45,8.32.97,12.42-6.22,17.18-3.94,2.61-8.2,4.66-12.42,6.77-4.39,2.19-8.88,4.23-12.84,7.15-5.11,3.76-6.55,8.31-4.77,14.37,1.15,3.93,3.33,7.27,6.08,10.21,5.34,5.7,10.7,11.39,16.2,16.93,5.68,5.7,10.2,12.31,14.82,18.81,3.8,5.34,3.26,9.33-1.2,14.24-2.43,2.69-5.1,5.18-7.63,7.78-3.17,3.26-6.31,6.55-8.85,10.34-2.09,3.14-3.22,6.5-2.18,10.31.85,3.11,1.16,3.31,4.02,1.99,4.12-1.89,8.22-3.84,12.32-5.79,2.42-1.15,4.78-2.07,6.7.81.5.74,1.06.83,1.78.26.95-.74,2.15-1,2.98-.12,1.67,1.77,2.08.49,3-.78,1.1-1.53,2.14-1.03,2.54.72.15.67.18,1.36.34,2.63.78-1.71,1.3-2.86,1.83-4.01.4-.86.97-1.56,2.06-1.37,1.17.2,1.1,1.19,1.3,2.08.09.42-.6,1.25.82,1.26,2.9.01,2.98.21,2.73,2.41-.7,6.32-1.94,12.55-3.45,18.73-.18.73-.11,1.89-1.6,1.8-1.58-2.04-.28-4.58-1.41-7.72-.86,3.19-1.48,5.63-2.18,8.04-.51,1.72-.24,4.25-1.81,4.94-1.81.8-3.46,1.16-4.73,3.03-.78,1.15-2.12-.78-3.3-.94-.78-.11-1.32.53-1.64,1.22-.42.91.15,1.31.94,1.48,1.79.39,3.57.47,5.41.35,7.1-.48,13.39-3.09,19.22-7,4.54-3.03,7.64-7.11,9.47-12.28,2.98-8.42,3.15-16.98,2.23-25.79-1.44-13.79-6.32-26.33-14.96-36.8-8.28-10.04-16.89-20.03-27.89-27.45-3.64-2.46-6.7-5.59-9.34-9.09-3.45-4.59-3.31-6.33,1.17-10.02,8.13-6.69,16.4-13.23,24.59-19.86,8.37-6.77,8.48-7.57,1.65-15.95-3.78-4.65-7.79-9.12-11.59-13.75-3.39-4.13-5.66-8.85-6.91-14.07s.03-9.68,3.79-13.48c2.84-2.88,6.24-4.98,9.8-6.81,8.61-4.43,17.77-7.31,27.1-9.72,17.06-4.42,33.96-9.33,49.84-17.17Zm-89.13,216.61c.36-2.1.67-4.21-.12-6.15-1.9-.46-3.11.55-4.39,1.12-13.47,5.94-13.57,6.14-17.02,20.43-.75,3.11-.96,6.4-2.77,9.62-3.29-6.65.4-12.92.3-19.36-7.32,3.42-7.35,3.41-9.72,9.85-2.48,6.73-4.75,13.53-6.57,20.54-3.16-7.18.32-13.87,2.02-21.45-5.22,3.1-9.65,5.52-10.75,11.48-.74,4.01-2.22,7.88-3.45,12.09-3.19-3.69-1.23-7.69-1.26-12.43-13.71,12.57-26.24,24.78-35.35,40.81,1.53,0,2.15.18,2.57-.03,2.92-1.46,5.9-2.83,8.68-4.53,21.04-12.93,42.31-25.46,64.53-36.3,3.26-1.59,6.41-3.42,9.6-5.16,1.27-.69,2.4-1.27,2.15-3.25-.76-5.85.57-11.56,1.55-17.28Zm-3.12-40.74c2.09-2.11,2.47-4.38.65-6.8-1.71-2.28-3.52-4.49-5.3-6.76-.77.53-1.28.76-1.63,1.15-10.92,12.11-22.13,23.97-32.53,36.55-4.16,5.04-8.16,10.18-12.07,15.4-1.31,1.76-1.43,3,.13,4.67,2.73,2.92,4.71,6.39,6.86,10.63,8.1-6.2,16.29-11.18,24.68-15.84,1.86-1.03,2-2.03,1.08-3.89-2.95-5.97-1.79-11.59,1.83-16.91,2.35-3.46,5.05-6.63,7.94-9.65,2.76-2.87,5.55-5.72,8.36-8.55Zm-7.37-17.29c-3.7-5.77-8.87-9.62-13.05-14.37-2.5-2.84-2.66-2.83-5.52-.32-7.25,6.34-13.63,13.55-20.06,20.69-5.59,6.21-10.3,13.11-15.04,19.98-.98,1.41-1.76,2.51-.07,4.17,4.5,4.41,8.8,9.03,13.61,14.02,12.78-15.73,26-30.36,40.13-44.17Zm-62.25,478.08c.05-1.07-.17-2.17-.33-3.25-4.76-33.09-11.35-65.82-19.64-98.21-.46-1.8-.35-4.01-2.56-5.57-11.84,11.91-27.83,13.94-43.01,17.86-.12,1.24.46,2.18.91,3.17,8.03,17.89,15.53,36.02,24.64,53.42,1.6,3.05,3.06,6.18,4.48,9.33.66,1.47,1.1,3.06,1.54,4.62.2.7.09,1.53-.61,1.91-.67.35-1.43.16-2.07-.25-1.25-.81-2.16-1.94-2.91-3.2-1.2-2.03-2.49-4.02-3.49-6.15-.97-2.06-2.31-2.87-4.63-2.9-7.08-.09-14.16-.47-21.24-.64-4.26-.1-5.03.45-6.2,4.47-1.98,6.75-1.8,13.69-1.09,20.55,1,9.67,2.13,10.67,11.64,12.36.18.04.36.04.54.08,13.65,2.76,27.57,4.07,40.57,9.94,7.99,3.62,14.66-1.96,21.04-5.98,4.46-2.8,2.24-7.56,2.42-11.56Zm-3.3-465.72c.11-3.08,1.07-6.83-.31-9.09-1.83-2.99.04-5.44-.58-8.09-1.06-4.44-2.11-8.85-4.72-12.65-1.49-2.16-3.06-4.44-6.38-4.74,0,1.56-.04,2.82,0,4.07.4,11.81-.15,23.57-1.16,35.34-.33,3.8-1.66,6.38-5.06,8.26-4.43,2.45-8.62,5.33-13.12,8.16,1.64,3.06,4.61,4.29,6.91,6.21,4.5,3.76,4.72,3.96,2.77,9.68-4.21,12.35-7.21,25.1-12.22,37.18-.24.57-.76,1.3.41,2.12,4.66-3.01,8.39-7.12,11.74-11.63,1.17-1.57,2.68-3.03,1.09-5.24-.19-.27-.27-1.68.98-1.14,2.41,1.05,2.73-1.02,3.48-2.29,3.15-5.32,6.16-10.82,7.71-16.76,1.42-5.48,5.57-10.46,3.6-16.67-.23-.73.43-.84.71-1.23,2.83-4.04,3.57-8.87,2.04-14.98-.18-.73.02-1.01.33-1.17,2.26-1.24,1.72-3.44,1.78-5.34Zm-6.21,123.84c.54-.56.58-1.18.19-1.94-1.66-3.22-6.99-5.23-10.12-3.74-15.02,7.17-30.05,14.31-45.04,21.55-3.89,1.88-7.64,4.06-11.94,6.36.99.72,1.24,1.07,1.51,1.08,13.62.6,26.56-2.62,39.28-7.03,1.24-.42,2.2-1.08,2.49-2.55.42-2.05,1.56-2.5,3.59-1.67,3.47,1.41,5.6-1.69,8.31-2.84,1.8-.77,1.13-2.21,1.08-3.68-.09-2.4.9-2.83,3.5-1.77.97.39,1.8,1.43,2.9.4,1.44-1.36,2.85-2.76,4.25-4.17Zm-14.2-11.79c2.23-.54,2.68-1.92,2.36-4.09-.36-2.37-1.8-2.26-3.53-2.15-8.7.55-17.4-.15-26.1-.41-3.8-.11-7.25-.23-8.89,4.11-.31.83-1.1,1.55-2.12,1.33-1.36-.28-1.36-1.49-1.46-2.58-.11-1.22.22-2.96-1.43-3.09-3.06-.25-6.17-.27-9.22,0-2.53.23-3.03,2.86-4.26,4.57-.71.98-.9,2.43-2.88,2.72-.3-.44-.58-.71-.68-1.04-1.86-5.88-1.86-5.91-7.94-4.33-1.58.41-3.11.98-4.64,1.53-.89.32-1.46.89-1.67,1.92-1.23,5.81,2.75,10.78,8.65,10.73,15.26-.11,30.38-1.62,45.31-4.84,6.19-1.34,12.34-2.92,18.5-4.39Zm2.11-11.41c-4.39-4.87-9.43-3.79-14.3-1.51-2.13,1-3.59,1.19-5.95.4-6.31-2.11-12.82-2.13-19.16.31,13.13-.24,26.18,2.45,39.41.8Zm10.72,31.39c-15.49,11.25-32,16.68-50.61,19.77,19.52,5.16,38.73-3.54,50.61-19.77Zm-50.23-119.37c1.32-4.45,1.21-4.68-3.08-6.39-7.25-2.89-13.93-1.26-20.01,3.1-8.39,6.02-13.04,14.53-14.81,24.49-1.59,8.92-1.02,17.75,4.01,25.71,3.6,5.7,8.6,9.22,15.57,9.33,3.54.11,6.83-.78,9.96-2.36,4.09-2.06,4.11-2.21,3.54-6.66-.34-2.69-.57-5.41-.67-8.12-.45-13.35,1.72-26.34,5.49-39.1Zm-17.84,205.2c3.26-7.3,4.73-14.86,3.14-22.8-3.19-15.94-16.66-26.28-37.9-26.22-17.14,1.1-32.71,10.8-41.59,30.01-7.19,15.54-3.54,30.8,9.12,41.86,4.06,3.55,4.15,3.69,8.76.79,16.52-10.36,34.45-16.91,53.64-20,2.54-.41,3.88-1.52,4.83-3.64Zm-33.81-297.04c22.5-13.4,42.51-30.26,64.87-46.12-25.36,6.14-86.07,42.8-98.96,59.31.89.54,1.7.04,2.53-.18,11.11-2.92,21.65-7.1,31.56-13.01Zm23.59,540.55c.75,8.1,1.59,8.63,10.96,8.51-3.39-11.6-3.07-22.8.54-33.75-1.1-.75-2.02-.64-2.92-.63-6.25.08-6.43.23-7.95,6.39-1.59,6.45-1.22,12.99-.63,19.48Zm-2.88,5.86c-2.3-10.62-2.6-21.13,1.86-31.66-6.51-1.47-7.2-1.1-8.26,5.25-1.27,7.56-1.66,15.09.37,22.59q.97,3.63,6.03,3.82Zm-9.02-1.72c-4.24-10.47-2.28-20.3.5-30.67-7.23-1.23-14.02-2.2-20.58-4.28-2.56-.81-4.6.42-6.1,2.48-1.71,2.35-2.98,4.92-3.71,7.78-.77,3.08-.3,5.6,2.28,7.78,3.15,2.66,5.18,6.12,5.32,10.31.07,2.31,1.44,2.6,3.09,2.91,3.37.63,6.76,1.21,10.12,1.93,2.76.59,5.45,1.58,9.08,1.76Zm-11.47,21.56q-1.58-4-4.89-6.84c.59,2.97,1.34,5.74,4.89,6.84Zm-7.55,16.93c5.26-9.26.29-26.79-9.61-35.85,4.91,11.16,8.4,22.72,9.61,35.85Zm-3.65-3.2c-.26-4.24-.85-8.26-2.53-13.07-.28,5.29.5,9.37,2.53,13.07Zm-4.5-73.13c.89-.67,1.91-1.13,1.57-2.48-.41-1.66-1.6-2.18-3.21-2.35-5.34-.57-9.17,1.95-11.84,6.16-3.91,6.17-5.1,12.8-1.61,19.6,5.13,9.97,1.46,8.49,15.65,11.33.03-4.1-2.09-6.51-4.64-8.6-2.77-2.26-4.18-5.15-3.64-8.59.91-5.81,2.75-11.3,7.72-15.07Zm-8.43,45.26q.63-4.37-7.62-3.87c2.63,2.59,5.06,3.3,7.62,3.87Zm-.13,6.79c.37-1.14.15-2.27-1.07-2.64-2.68-.8-5.4-.96-8.7.08,2.47,2.57,5.32,2.46,7.64,3.5.87.39,1.79.13,2.13-.94Zm-1.06,5.41c.48-1.72-2.63-1.67-4.27-2.08-.85-.21-1.77-.41-3.25.83,1.47.51,2.34,1.13,3.08,1,1.63-.27,3.74,2.79,4.44.25Zm-3.49-20.46c1.71-.09,3.58.98,5.67-.46-3.19-1.52-6.01-2.09-9.09-2.38-.19,2.86,1.64,2.93,3.42,2.84Zm3.3,28.71c.13-1.41-.49-2.46-1.75-3.06-2.98-1.43-6.09-2.23-9.42-1.72-1.82.28-2.39,1.11-1.73,3,2.07,5.97,4.41,11.83,7.15,17.52.75,1.55,1.09,3.47,2.92,4.32.3-.25.73-.44.8-.72,1.52-6.35,1.4-12.88,2.03-19.34Zm-5.55,31.78c2.04-3.22,2.26-5.74-.06-8.4-1.28-1.47-2.05-3.41-2.94-5.19-8.3-16.81-14.53-34.4-18.78-52.61-3.34-14.31-5.6-28.83-4.03-43.64.16-1.52-.12-2.48-1.7-2.78-1.68-.33-2.84.28-3.35,1.94-1.1,3.56-.76,7.16-.48,10.79,1.32,16.9,5.96,33.12,9.91,49.5,3.34,13.82,8.71,26.87,14.4,39.81,1.65,3.75,3.33,7.6,7.03,10.58Zm-4.16-93.84c1.42-3.74,3.57-7.01,7.71-10.08-8.66-1.62-15.82-4.41-23.09-6.86-2.42-.81-3.4.19-3.35,2.53.07,2.88-.04,5.81.42,8.64.39,2.37-1.06,5.6,1.56,6.95,2.29,1.18,5.13,1.77,7.89,1.5,2.16-.21,4.3-.54,6.45-.81,1.17-.15,1.98-.75,2.41-1.87Zm3.28,23.87c-1.16-2.17-2.29-4.28-3.42-6.39-1.49,3.07-2.06,5.99-1.23,9.34,1.82-1.15,3.14-2,4.65-2.95Zm-5.15,19.6c.68-.27,1.26-.82,1.23-1.61-.1-2.75-.81-5.36-1.89-7.86-2.23-5.13-2.92-10.35-1.69-15.87.66-3.01.65-6.08-.37-9.11-.48-1.41-1.09-2.18-2.68-1.85-1.98.41-1.47,1.7-1.02,2.89,1.5,3.89,1.28,7.76.14,11.69-.39,1.37-.41,2.86-.6,4.29-.45,6.38,3.8,11.18,5.59,16.8.16.51.75.83,1.29.63Zm-2.22,10.74c.61-4.47-.7-8.7-2.69-12.64-1.25-2.47-1.72-5.65-4.71-6.96-.03-.1-.05-.19-.07-.29-.09-.3-.18-.61-.27-.91-.45-5.75-.77-11.48,1.24-17.11.45-1.27.23-2.91-.1-4.29-.87-3.68-.1-5.6-6.29-5.14.66,9.06,2.57,17.87,5.15,26.54.02.36.05.72.08,1.08.09.03.18.07.26.12,1.41,6.45,3.76,12.59,5.8,18.85.15.48.53.96,1.6.75Zm-24.83-212.87c.79-1,2.33-1.81.75-3.57-6.36-7.07-10.86-15.39-15.6-23.54-1.07-1.85-1.77-3.96-3.94-5.78-1.93,2.52-2.8,5.1-3.95,7.55-1.21,2.59-.88,4.61.93,6.95,5,6.47,10.11,12.85,15.75,18.78,3.09,3.24,3.2,3.23,6.06-.39Zm-21.99-266.53c1.06-1.42,2.44-2.71,2.74-4.87-3.42-.91-7.34-.66-10.08-3.27-1.96-1.85-2.89-1.14-4.13.7-3.75,5.58-7.33,11.24-10.47,17.19-10.26,19.47-17.06,40.06-18.99,62.01-1.49,17-1.18,34.07-.05,51.11.22,3.32.83,6.62,1.37,10.8,2.09-2.13,2.24-3.94,2.61-5.61,2.47-11.26,3.14-22.64,1.66-34.08-1.9-14.76.03-28.91,6.09-42.53,8.05-18.11,17.35-35.52,29.25-51.45Zm-20.72,402.98c1.04-9.94-1.11-18.64-4.65-27.09-1.76-4.18-3.73-8.28-5.54-12.44-6.29-14.47-14.68-27.44-26.09-38.53-8.49-8.26-17.84-15.46-26.89-23.02-15.52-12.97-23.93-29.16-23.97-49.69-.05-26.45,11.03-47.35,31.14-63.71,4.61-3.75,8.31-7.02,7.5-13.59-.29-2.38.86-4.97,1.45-7.44,1.24-5.13,3.06-10.07,4.86-15.02.4-1.09,1.51-2.18.26-3.65-3.97,1-7.8,2.59-11.62,4.21-21.23,9.01-38.84,22.35-51.68,41.9-12.2,18.58-18.37,39-19.9,60.92-1.17,16.75,3.6,31.94,13.45,45.56,7.22,9.98,16.07,18.24,26.08,25.33,6.23,4.42,12.19,9.18,17.97,14.16,5.7,4.9,10.68,10.46,14.29,17.05,5.99,10.89,7.33,22.29,2.88,34.11-4.33,11.48-12.14,20.1-22.09,26.99-1.26.87-3.09,1.13-3.76,3.49,8.02-1.6,15.48-3.5,20.81-9.98,5.71-6.95,10.4-14.44,12.2-23.44.25-1.24.63-2.46.98-3.68.33-1.1.9-2.03,2.17-2.11,1.62-.11,2.12,1.11,2.56,2.35.12.34.27.68.33,1.03,2.65,14.67,2.91,28.95-6.4,41.8-1.66,2.3-3.38,4.63-4.33,8.24,8.19-2.26,13.32-6.44,15.86-13.86,1.68-4.89,2.46-9.85,2.88-14.92.35-4.16.5-8.34.9-12.49.16-1.64-.47-4.4,1.88-4.36,2.14.04,1.76,2.79,2.04,4.5.23,1.43.43,2.91.3,4.34-.44,5.25-.55,10.52-1.49,15.73-1.47,8.14-4.06,15.7-10.65,21.3,1.11.78,1.87-.02,2.6-.4,3.79-2.03,6.6-5.05,8.72-8.76,7.52-13.13,10.63-27.3,9.88-42.36-.07-1.43-.56-3.05,1.1-3.87,1.92-.96,3.07.48,4.07,1.75,3.19,4.05,5.09,8.76,6.97,13.51.74,1.89.93,4.14,2.93,6.14Z"/>
    <path d="m857.28,397.04c3.77.08,4.91,1.3,4.33,5.04-.25,1.6-.81,3.16-1.32,4.71-2.51,7.65-6.43,14.59-10.74,21.34-31.02,48.54-68.55,91.51-111.32,129.97-9.32,8.37-18.05,17.4-27.91,25.17-2.78,2.19-5.4,4.73-8.96,5.86-.83-2.13-.2-3.87.15-5.62,2.77-13.89,9.1-25.9,18.73-36.29,5.82-6.27,12.03-12.13,18.26-17.95,13.71-12.78,24.78-27.4,33.11-44.23,5.15-10.41,10.78-20.6,16.66-30.61,13.98-23.82,33.7-41.61,58.14-54.28,3.4-1.77,6.92-3.19,10.87-3.11Z"/>
    <path class="cls-3" d="m811.01,409.94c8.42-7.38,18.97-10.18,29.4-13.49-8.26,4.91-16.02,10.56-23.53,16.54-13.64,10.84-25.08,23.67-33.73,38.81-6.21,10.87-12.25,21.85-17.98,32.98-7.05,13.69-15.89,25.97-26.92,36.71-6.51,6.32-12.99,12.67-19.39,19.11-10.71,10.79-18.29,23.39-21.75,38.32-.25,1.04-.71,2.02-1.15,3.24-4.63-5.39-5.19-10.97-2.44-17.19,5.52-12.53,13.76-22.99,23.91-32.02,2.98-2.65,6.14-5.11,9.38-7.44,11.28-8.11,19.87-18.53,26.47-30.65,5.2-9.56,10.26-19.2,15.32-28.83,7.02-13.37,14.73-26.29,24.43-37.92,5.47-6.56,11.56-12.54,17.98-18.17Z"/>
    <path class="cls-4" d="m792.95,419.07c.53-.36,1.06-1.09,2.13-.31-11.61,11.97-20.54,25.87-28.96,40.38-2.93-5.73-2.58-17.55.53-21.96.5-.71,1.29-1.26,2.03-1.76,8.08-5.47,16.16-10.92,24.27-16.35Z"/>
    <path class="cls-2" d="m772.07,80.5c-1.72.98-3.03.11-4.37-.26-12.48-3.39-25.14-5.64-38.09-6.24-8.56-.4-17.07-.04-25.5,1.55-4.87.92-7.1,2.16-10.17,5.22,9.36,7.14,21.03,10.56,30.37,19.13-6.86.22-12.73-1.06-18.44-3.13-4.09-1.47-8.18-3.04-12.1-4.93-11.21-5.39-23.16-7.03-35.42-7.59-19.71-.88-39.17,1.2-58.58,4.37-25.3,4.13-50.28,9.54-74.46,18.27-27.63,9.97-53.27,23.96-78.45,38.88-1.25.74-2.37,1.69-3.62,2.42-2.33,1.35-4.06,4.71-6.59,4.26-2.36-.43-4.38-3.01-6.46-4.75-3.04-2.54-6.58-4.51-9.59-8.31,10.29-7.92,20.32-15.39,30.74-22.35,37.23-24.82,78.42-40.03,121.71-50.06,19.8-4.59,39.64-9.05,59.68-12.52,10.75-1.86,21.59-3.12,32.51-2.95,11.07.17,22.14-.45,33.19.59,2.55.23,4.93-1.09,7.26-2.11,8.34-3.61,16.74-7.02,25.7-8.81,4.32-.87,8.66-.9,13.02-.5,1.45.13,2.88.28,4.08,1.75-17.98,1.67-34.66,6.84-51.39,16.16,3.28,1.13,5.2.5,7.16-.06,8.36-2.41,16.48-5.65,25.03-7.48,9.68-2.06,19.36-3.27,29.1-.52,2.04.58,4.25.94,6.04,3.07-3.76,1.2-7.35,1.03-10.9.96-12.48-.21-24.58,2.07-36.46,5.64-5.52,1.65-10.72,4.03-15.18,7.53.64,2.1,1.9,1.5,2.86,1.45,7.8-.36,15.5-1.84,23.33-2,9.71-.21,19.21.88,28.46,3.9,3.65,1.18,7.12,2.74,10.38,4.74,1.98,1.21,3.94,2.52,5.15,4.68Zm-269.92,12.37c-4.92-.04-7.95,1.93-10.75,4.41-.33.29-.54,1.03-.42,1.45.24.79,1.08.99,1.75.72,3.28-1.36,6.5-2.83,9.42-6.58Z"/>
    <path class="cls-4" d="m759.55,455.6c.01,2.3,2.36,4.66.75,6.71-1.74,2.2-4.07,4.07-6.72,5.32-.95.45-1.92.84-3.81,1.66,3.11-6.3,5.83-11.8,8.55-17.3.3,0,.61,0,.92.01.11,1.2.31,2.4.31,3.6Z"/>
    <path class="cls-1" d="m786.09,371.54c-22.32,17.01-35.14,40.56-45.55,67.14.43-28.54,23.8-62.65,45.55-67.14Z"/>
    <path class="cls-5" d="m759.77,469.83c.25.4.44.6.4.68-7.92,15.27-14.88,31.15-27.55,43.43-2.87,2.8-5.96,5.31-9.16,7.7-8.76,6.56-17.01,13.63-23.32,22.7-.5.71-.98,1.58-2.06,1.59-4.74-7.15-4.58-11.92.66-18.43,2.07-2.56,4.49-4.69,7.39-6.35,3.46-1.97,6.82-4.13,10.18-6.28,12.04-7.7,18.78-18.87,21.34-32.74.3-1.64.37-3.07,2.4-3.73,6.86-2.2,13.4-5.19,19.72-8.57Z"/>
    <path class="cls-1" d="m756.83,443.93c-2.72,7.76-5.95,15.21-10.91,21.89-.53-5.57,1.1-10.62,2.87-15.66,1.31-3.7,5.32-4.03,8.04-6.23Z"/>
    <path class="cls-1" d="m746.35,344.5c.74.82,0,1.68-.41,2.45-6.94,12.96-8.11,27.39-10.3,41.5-1.96,12.72-2.47,25.6-2.35,38.6-2.9-6.49-3.87-13.47-5.21-20.34-.84-4.27-1.39-8.6-1.92-12.92-1.74-13.99,1.11-27.07,8.02-39.3,2.26-4.01,5.2-7.43,9.23-9.78.9-.53,1.99-1.26,2.94-.21Z"/>
    <path class="cls-4" d="m741.39,459.47c-.19,4.88-.56,8.76,1.11,12.24-1.29,1.55-2.98,1.63-4.54,2.06-7.04,1.93-14.3,2.35-21.5,3.23-7.82.95-13.12-3.39-17.72-8.62-3.33-3.8-7.22-8.16-7.41-13.04-.21-5.06,3.07-9.93,5.7-14.5,3.05-5.31,7.33-9.45,12.55-12.61,4.36-2.63,5.5-2.39,8.68,1.48,3.34,4.04,6.19,8.5,10.88,12.27-3.25,2.22-5.9,4.09-8.62,5.86-4.05,2.63-7.1,6.19-9.64,10.22-2.13,3.38-2.46,6.1-.78,7.47,2.68,2.19,5.19.5,7.52-.79,2.17-1.21,4.14-2.76,6.83-4.59-.72,2.99-1.34,5.22-1.77,7.49-.4,2.08-.03,4.06,1.93,5.27,1.8,1.12,3.52.33,5.11-.61,2.39-1.41,4.16-3.49,5.88-5.61,1.7-2.09,3.37-4.2,5.79-7.22Z"/>
    <path class="cls-1" d="m735.28,450.87c2.33-3.04,2.39-2.99,7.36-.76-4.9,5.85-8.83,12.24-14.46,17.79-.91-2.29-.1-3.72.5-5.19,1.73-4.2,3.83-8.22,6.6-11.84Z"/>
    <path class="cls-1" d="m728.13,484.21c.82-4.04,1.02-4,6.31-3.57-3.36,11.8-8.4,22.39-19.27,29.19-3.38,2.11-6.59,4.5-10.04,6.48-6.35,3.64-11.27,8.45-13.77,15.48-.24.65-.67,1.24-1.04,1.92-2.98-1.45-3.47-3.46-2.28-6.3,2.99-7.11,7.82-12.57,14.43-16.47,3.27-1.93,6.68-3.64,9.94-5.6,8.12-4.88,13.76-11.59,15.72-21.13Z"/>
    <path class="cls-1" d="m731.63,445.26c.55,2.06-.44,2.49-1.02,3.02-4.93,4.45-9.69,9.12-15.48,12.56,2.81-7.96,10.75-10.21,16.5-15.58Z"/>
    <path class="cls-5" d="m724.08,481.64c.14,3.37-1.07,6.09-2.69,8.64-2.87,4.49-6.44,8.32-11.11,10.99-2.36,1.35-4.74,2.67-7.15,3.94-9.01,4.76-15.72,11.56-19.06,22.13-4.51-3.47-8.5-6.55-12.8-9.87,2.56-1.24,4.83-2.3,7.06-3.43,11.56-5.85,19.06-15.36,24.25-26.94.6-1.32,1.07-2.7,1.58-4.05.51-1.33,1.26-2.15,2.86-1.65,5.51,1.72,11.1.83,17.06.24Z"/>
    <path d="m698.97,477.67c1.34,1.08,1.46,2.1.85,3.74-5.21,14.1-14.31,24.65-28.01,31.04-4.64,2.17-4.87,2.04-6.7-2.55-2.8-7.08-5.6-14.15-8.36-21.24-1.81-4.67-1.56-5.61,3.06-7.44,6.82-2.7,13.96-3.87,21.31-2.99,4.99.6,5.56.21,5.97-4.88.27-3.22.11-6.52,2.04-10.26,2.64,6.06,5.34,10.97,9.84,14.58Z"/>
    <path class="cls-4" d="m693.86,549.11c.62,1.34,1.38,2.43.37,3.98-2.57,3.96-4.21,8.4-6.14,13.88-6.89-15.04-11.81-29.75-17.91-44.09,2.03-.53,2.74.77,3.63,1.5,8.43,6.82,15.42,14.81,20.05,24.73Z"/>
    <path class="cls-1" d="m693.54,432.21c.92,1.89.67,3.2-.35,4.95-6,10.32-9.81,21.42-11.12,33.29-.26,2.39-1.17,3.13-3.37,3.03-4.59-.21-9,.82-13.42,1.88-3.93.94-7.47,2.69-11.01,5.2-4.34-10.12-8.49-19.94-12.76-29.7-.88-2.01-.08-3.53.78-5.11,6.04-11.01,14.77-19.22,26.14-24.49,4.59-2.13,9.37-3.88,14.48-4.55,2.69-.36,4.33.13,5.33,2.99,1.48,4.27,3.33,8.43,5.3,12.51Zm-23.45,15.97c.52-.14.72-.62.69-1.17-.05-.62-.5-.88-1.01-.92-.6-.04-.86.45-.85.96.02.71.25,1.37,1.17,1.13Zm-6.72,10.67c.09-.7-.03-1.46-.75-1.77-.82-.35-1.3.16-1.4.94-.12.86-.13,1.73.86,2.15.93.03,1.2-.6,1.29-1.32Z"/>
    <path class="cls-1" d="m687.71,579.15c1.37,2.49,1.21,4.5.11,7.1-3.73,8.85-9.78,15.17-18.79,18.6-2.04.77-4.11,1.44-6.31,1.59-1.48.1-2.35-.38-2.59-2.01-.43-2.89-1.21-5.69-2.87-8.16-3.03-4.52-7.8-5.64-11.66-2.73-3.96,2.99-4.08,8.41-.29,12.43,1.8,1.91,4.07,3.19,6.57,3.65,3.19.6,3.2,2.35,2.33,4.74-5.9,16.02-16.91,26.5-33.71,30.12-9.48,2.05-19.13,2.24-28.52-1.03-5.92-2.06-11.28-4.97-15.07-10.22-1.44-2.01-1.88-3.65.21-5.65,1.4-1.34,2.5-3.16,3.25-4.97,1.57-3.81-.2-7.63-3.82-8.9-3.18-1.11-5.89.58-7.36,4.6-.83,2.27-.8,4.62-.74,6.99.09,3.59-.75,4.54-4.29,4.6-1.98.03-4-.2-5.96-.54-9.7-1.69-19.19-4.29-27.91-8.88-14.58-7.69-24.3-19.32-27.5-35.86-.46-2.34-.68-4.69-.46-7.04.9-9.38,4.01-18.02,8.93-26.04,1.32-2.15,2.65-3.28,5.19-1.58,1.88,1.25,4.14,1.31,6.34,1.04,4.09-.49,6.96-3.65,6.63-7.24-.31-3.3-3.44-5.57-7.63-5.37-2,.09-3.95.52-5.79,1.41-1.5.73-2.36.09-2.87-1.38-1.16-3.35-1.17-6.79-.7-10.23,2.9-21.68,15.41-35.56,35.54-42.75,14.45-5.16,29.33-4.08,44.15-1.55,5.56.95,10.96,2.52,16.1,4.87,1.63.75,3.43,1.23,4.68,2.79-1.46,3.74-3.39,7.25-4.3,11.17-.58,2.52-.93,5.02-.62,7.55.54,4.43,3.84,7.8,8.06,8.43,3.43.51,7.3-1.82,9.14-5.59,1.76-3.61,1.55-7.43.83-11.21-.69-3.6-2.06-7-4.29-9.93-1.32-1.73-1.46-3.02.07-4.7,5.46-6.01,11.75-10.79,19.42-13.63,1.97-.73,3.47-.75,4.21,1.7.51,1.73,1.4,3.35,2,5.06,8.78,25.01,19.16,49.4,28.81,74.08,3.31,8.46,7.12,16.7,11.48,24.67Z"/>
    <path class="cls-5" d="m682.16,405.45c.87,1.94,2.23,3.74,2.23,6.49-20.38,3.03-35.71,13.44-44.96,32.49-3.04-4.21-3.34-7.98-.83-12.21,7.98-13.5,18.32-24.22,33.51-29.48.85-.3,1.7-.65,2.57-.87,4.7-1.15,5.51-.8,7.48,3.58Z"/>
    <path class="cls-1" d="m675.35,390.93c.83,1.79,1.56,3.63,2.42,5.66-19.95,4.96-33.6,17.33-43.13,35.36-3.26-4.27-3.15-8.17-.97-12.5,7.54-14.91,19.16-25.29,34.48-31.63,4.83-2,4.91-1.85,7.2,3.11Z"/>
    <path d="m670.78,447.01c.03.55-.17,1.03-.69,1.17-.92.24-1.15-.42-1.17-1.13-.01-.51.25-1,.85-.96.51.04.96.3,1.01.92Z"/>
    <path class="cls-2" d="m666.07,371.99c1.49,3.1,4.38,6.58,3.83,9.32-.62,3.1-5.69,2.95-8.67,4.55-12.61,6.8-22.98,15.84-29.76,28.66-.68,1.26-1.36,2.52-2.06,3.82-1.79-1.01-1.82-2.79-2.37-4.23-2.48-6.44-4.86-12.91-7.3-19.37-.51-1.35-1.1-2.68-1.73-3.99-.73-1.53-1.66-3.11-3.66-2.39-1.83.66-1.26,2.42-1.03,3.78.63,3.59,1.86,7.02,3.17,10.41.7,1.79.62,3.26-1.49,3.85-11.44,3.21-21.41,9.7-32.81,14.88,1.21-7.59,1.34-14.27-.44-20.86-1.26-4.72-3.61-8.89-7.86-11.36-2.61-1.53-3.27-3.43-3.54-6.12-.87-8.85-.97-8.9,6.68-12.8,15.85-8.07,31.63-16.27,47.83-23.63,7.46-3.4,15.14-6.13,23.05-8.21,6.73-1.78,6.68-1.65,10.39,4.12,1.83,2.83,3.25,5.79,2.97,9.15-.61,7.36,1.7,13.96,4.8,20.42Zm-8.2-12.16c.07-.67-.31-1.44-1.09-1.69-1.1-.34-1.72.38-2.02,1.23-1.42,3.99-3.03,7.95-2.61,12.44,4.06-3.03,5.24-7.37,5.72-11.98Z"/>
    <path d="m662.62,457.08c.72.31.84,1.07.75,1.77-.09.72-.36,1.35-1.29,1.32-.99-.42-.98-1.29-.86-2.15.1-.78.58-1.29,1.4-.94Z"/>
    <path d="m656.78,358.14c.78.25,1.16,1.02,1.09,1.69-.48,4.61-1.66,8.95-5.72,11.98-.42-4.49,1.19-8.45,2.61-12.44.3-.85.92-1.57,2.02-1.23Z"/>
    <path class="cls-1" d="m652.36,598.2c1.58,1.99,2.86,4.13,2.17,7.04-2.79-.47-5-1.45-6.49-3.74-.93-1.44-.83-2.72.53-3.83,1.45-1.17,2.78-.74,3.79.53Z"/>
    <path class="cls-1" d="m621.72,507.47c.17,3.76-2.07,7-4.58,7.07-2.83.07-5.12-3.44-4.55-7.43.58-4.12,1.84-8.06,4.55-12.15,3.25,3.99,4.37,8.12,4.58,12.51Z"/>
    <path class="cls-1" d="m574.8,619.49c.55-.03.62.62.57,1.17-.22.56-.26,1.38-1.21,1.2-.17-.04-.41-.57-.35-.81.15-.62.15-1.52.99-1.56Z"/>
    <path class="cls-4" d="m561.49,406.33c1.32,7.97.42,15.63-3.03,22.85-2.82,5.9-6.36,11.45-10.58,16.47-7.3,8.7-17,13.4-27.91,15.83-9.61,2.15-19.43,3.21-29.21,3.09-30.59-.41-59.9,5.69-88.36,16.42-25.33,9.54-50.12,20.27-73.75,33.59-15.5,8.73-30.7,18.07-46.92,25.43-18.74,8.49-38.26,14.73-58.6,18.08-7.55,1.24-15.21,1.2-22.83.43-4.41-.44-8.53-1.88-12.11-4.53-19.03-14.06-28.06-32.82-26.16-56.53.49-6.12,3.1-11.58,6.89-16.37,4.49-5.68,10.43-7.76,17.45-5.87,8.69,2.34,16.06,7,21.21,14.41,7.52,10.8,11.67,22.94,12.4,36.11.41,7.47-1.16,14.16-8.72,17.83-.88.43-1.46,1.2-1.21,2.19.31,1.22,1.37,1.72,2.5,1.66,2.9-.15,5.11-1.7,7-3.77,4.66-5.13,6.63-11.3,6.26-18.06-.79-14.45-5.07-27.85-13.39-39.75-5.71-8.17-13.83-13.28-23.21-16.34-3.81-1.24-7.79-1.76-12.18-.61.15-2.3,1.67-3.38,2.81-4.52,8.37-8.37,17.46-15.9,27.33-22.43,18.36-12.14,37.96-21.3,59.99-24.54,4.89-.71,9.76-.91,14.66-.54,2.93.23,5.42,1.52,8.04,2.93,11.59,6.28,21.17,15.28,31.77,22.88.53.39,1.05,1.06,2.45.13-6.95-10.1-15.68-18.3-25.53-25.38.08-1.87,1.66-2.34,2.77-3.12,5.07-3.6,10.69-6.15,16.42-8.48,26.31-10.71,53.71-16.5,82.03-18.13.91-.05,1.82-.02,2.72-.07,10.03-.57,17.99,2.64,23.47,11.63,3.46,5.68,7.8,10.84,12.22,16.05.39-3.24-1.03-6.01-2.17-8.83-1.3-3.2-3.02-6.2-4.94-9.07-1.79-2.69-3.64-5.34-5.58-8.18,2.63-2.13,5.47-2.53,8.32-2.82,12.24-1.23,20.98,3.95,26.67,14.63,1.53,2.89,2.91,5.85,3.92,8.98.34,1.08.35,2.46,2.05,3.45,1.19-3.44.97-6.59.22-9.74-.94-3.93-2.6-7.58-5.07-10.76-1.59-2.05-.98-3.13,1.01-4.2,4.34-2.34,8.88-3,13.7-1.93,4.11.91,7.92,2.58,11.7,4.37,6.4,3.04,12.77,6.22,19.71,7.81,8.64,1.99,17.35,1.03,26-.2,4.51-.65,9.02-1.14,13.55-1.22,2.16-.04,4.38.2,6.48.71,4.19,1.02,6.98,3.41,7.74,8.03Zm-20.14,34.72c2.81-1.75,4.52-4.23,5.51-8.04-4.38.86-6.03,3.78-7.78,6.56-.32.52-.09,1.06.32,1.45.61.58,1.32.42,1.95.03Zm-15.17-1.5c-.27-.36-.54-.72-.8-1.09-6.55,3.18-13.1,6.36-19.64,9.53l.54,1.77c4.52.53,8.55-1.36,12.42-3.47,3.01-1.65,6.11-3.41,7.48-6.74Zm6.4,1.46c-5.73,2.4-10.26,5.42-15.19,9.22,6.89.89,13.11-2.88,15.19-9.22Zm-103.44,22.59c3.58-1.01,7.18-2.13,10.04-4.94-9.99,1.89-20.16,1.37-30.07,3.17-5.24.95-9.91,3.46-13.89,7.06-.83.75-2.2,1.4-1.62,2.94.88.5,1.45-.09,2.02-.44,6.18-3.77,12.85-5.68,20.12-5.75,4.53-.04,9.03-.8,13.4-2.04Zm-162.17,45.77c.82-1.23,1.38-2.56.06-4.47-4.49,3.09-7.74,7.41-11.51,11.16-.41.41-.31,1.03.04,1.48.69.87,1.61.74,2.44.31,3.79-1.97,6.62-4.98,8.97-8.48Z"/>
    <path class="cls-3" d="m547.2,388.7c.19.87.57,1.72-.02,2.93-9.63.01-19.18,2.71-29.06,2.45-5.35-.14-10.49-.86-15.4-2.94-5.68-2.42-11.29-4.99-16.96-7.42-9.34-4-18.6-4.9-27.52,1.12-1.64,1.11-2.84.59-4.45-.18-10.16-4.91-20.5-5.78-30.9-.65-1.35.67-2.48,1.1-4.05.39-5.09-2.28-10.55-2.57-16.02-2.48-23.06.39-45.46,4.71-67.44,11.45-8.34,2.55-16.52,5.53-24.5,9.07-5.67,2.51-11.14,5.37-15.93,9.34-1.69,1.41-3.13,2.02-5.35.95-3.97-1.9-8.44-1.82-13.06-2.41.99-4.69,2.91-8.79,3.56-13.25,3.16-21.42-9.8-39.62-31.05-43.32-26.08-4.54-54.16,13.49-60.94,39.11-4.66,17.63.65,31.45,16.54,42.98,0,1.6-1.5,1.86-2.43,2.53-6.66,4.76-13.03,9.87-19.15,15.3-3.52,3.12-4.01,3.03-6.65-.8-5.68-8.24-10.38-17.06-15.1-25.87-1.38-2.57-2.81-5.09-4.76-7.28-3.51-3.92-7.38-4.22-11.44-.83-3.25,2.71-5.56,6.23-7.92,9.67-2.27,3.29-4.43,6.65-6.65,9.97-.4.61-.89,1.16-2.1.96-1.08-2.58-.86-5.41-.73-8.26.63-13.11,3.35-25.93,5.35-38.84.5-3.26.86-6.52.35-9.76-.88-5.68-4.92-7.62-9.94-4.87-3.43,1.89-5.85,4.86-8.05,8-4.28,6.12-7.81,12.67-11.11,19.36-1.02,2.08-1.95,4.23-3.75,6.1-2.07-1.87-1.96-4.12-2.1-6.18-.95-14.18,1.63-27.85,6.34-41.16,1.87-5.32,4.05-10.53,6.83-15.43,10.76-18.98,13.12-39.48,10.64-60.68-1.53-13.04.54-25.32,5.66-37.22,7.77-18.08,17.09-35.27,28.63-51.28,6.15-8.54,11.68-17.53,17.45-26.35,1.5-2.29,3.22-4.85,1.52-7.54-1.93-3.06-5.21-1.92-7.98-1.46-5.26.89-9.85,3.6-14.55,5.97-2.59,1.3-5.15,2.79-7.9,3.6-4.2,1.25-5.95-.55-4.91-4.79,1.36-5.55,5.07-9.56,9.17-13.23,10.07-9,21.86-14.91,34.63-18.94,7.09-2.24,14.23-4.37,21.47-6.08,17.79-4.21,33.56-12.53,48.52-22.77,15.3-10.48,29.88-21.91,44.8-32.91,15.04-11.08,31.46-19.45,49.45-24.67,6.32-1.84,12.56-1.71,18.74.43,5.27,1.83,5.82,3.39,3.14,8.44-1.55,2.92-3.66,5.42-5.92,7.8-6.63,6.99-13.54,13.69-21.08,19.71-6.3,5.03-11.69,10.86-16.25,17.52-3.13,4.56-4.52,9.43-3.76,14.93.57,4.13,1.06,8.28,1.5,12.44.56,5.2.51,5.18-4.11,7.05-1.5.61-3,1.3-4.4,2.12-1.38.82-1.86,2.18-1.54,3.76.36,1.72,1.7,2.2,3.21,2.46,1.79.3,3.59-.7,5.42.02.53,2.14.02,3.97-1.81,5.24-12.58,8.74-19.75,21.52-26.12,34.9-1.17,2.44-1.31,5.9-3.51,7.16-2.15,1.24-4.43-1.65-6.87-2.27-6.73-1.71-13.02-.82-18.87,2.74-11,6.68-16.48,17.06-18.91,29.29-1.59,8.03-.99,15.95,2.26,23.52,7.35,17.09,23.89,19.41,34.98,12.56.45-.28.97-.45,1.51-.69,1.91.89,1.92,2.96,2.7,4.5,5.96,11.87,16.31,14.88,27.65,7.97,5.2-3.18,9.27-7.56,12.95-12.34,6.48-8.42,11.19-17.82,14.96-27.71.77-2.03,1.53-4.07,2.26-6.04.48-.05.94-.23,1.11-.09,8.5,7.39,17,14.76,23.33,24.25,1.35,2.03,1.46,3.22-.68,4.88-12.14,9.4-22.36,20.71-31.84,32.74-2.31,2.94-2.66,3.08-5.54.56-5.79-5.06-12.13-5.32-18.76-2.32-1.99.9-3.65,1-5.68.47-5.71-1.49-11.48-1.2-17.3-.38-11.15,1.58-22.23,3.46-33.04,6.71-5.09,1.53-9.92,3.57-14.12,6.86-11.18,8.76-11.38,22.71-.44,31.74,4.99,4.12,10.9,6.41,16.95,8.47,9.67,3.3,19.94,3.66,29.77,6.3,9.38,2.53,19.05,1.87,27.73-2.23,17.45-8.27,30.9-20.43,34.32-40.71.42-2.5,1.22-4.21,3.55-5.53,11.37-6.46,22.66-13.06,33.92-19.7,2.32-1.36,4-1.45,6.21.48,3.24,2.81,7.21,3.7,11.63,3.69,12.01-.03,23.33,3.26,33.99,8.61,5.59,2.81,10.56,6.77,12.8,12.85,1.83,4.97,5.13,7.14,10.1,7.59,8.03.73,15.01,4,21.28,8.96,2.43,1.92,4.81,3.92,6.67,6.39,1.89,2.49,4.34,3.73,7.32,4.28,16.74,3.08,28.81,12.31,36.05,27.72,4.64,9.86,9.24,19.74,11.5,30.5Zm-27.44-19.15c.11-1.09-.44-1.72-1.47-1.73-.67-.01-1.47.2-1.52,1.13-.05,1.06.64,1.64,1.57,1.8.79.13,1.29-.39,1.42-1.2Zm-12.39,9.6c-.21-.33-.42-1.05-.73-1.1-1.18-.2-1.31.74-1.41,1.61-.08.62.27.98.82,1,.87.02,1.05-.71,1.32-1.51Zm-8.67-1.48c.18-.96-.2-1.79-1.24-1.99-1.08-.2-1.65.56-1.81,1.47-.17.92.14,1.74,1.21,2.02,1.02.01,1.66-.57,1.84-1.5Zm-32.53-24.33c3.5.26,6.99-2.78,6.98-6.06-.02-2.62-2.06-4.52-4.95-4.61-3.57-.12-6.44,2.38-6.58,5.72-.12,2.77,1.69,4.74,4.55,4.95Zm-23.52-23.23c4.44-17.95-5.19-34.26-23.04-39.02-22.9-6.11-49.59,9.11-55.96,32.51-5.68,20.87,5.16,37.47,24.78,41.52,2.69.56,5.4.61,8.13.62,21.27-.11,41.1-15.44,46.09-35.63Zm-8.86,41.9c1.77-.36,2.65-1.57,2.82-3.26-.19-.81-.53-1.44-1.32-1.56-1.39-.21-3.13,2.01-2.94,3.69.1.88.72,1.28,1.44,1.13Zm-70.84-65.69c-.11-.71-.36-1.41-1.12-1.55-1.04-.19-1.71.47-1.75,1.42-.03.93.5,1.66,1.61,1.54.79-.09,1.14-.67,1.26-1.41Zm-11.96,68.71c.56-.11.8-.72.71-1.5-.11-.89-.81-1.3-1.51-1.01-.63.26-1.01,1.02-.68,1.81.21.48.48.99,1.48.7Zm-19.95-14.77c2.98-.07,5.6-2.96,5.58-6.13-.03-2.61-1.86-4.37-4.46-4.27-3.34.13-6.02,2.72-5.92,5.73.09,2.81,2.07,4.73,4.8,4.67Zm-4.71-284.33c.23-1.23-.61-1.98-1.79-2.14-1.8.09-3.67,2.78-3.43,4.91.14,1.19.79,2.22,2.09,1.85,2.22-.62,2.76-2.69,3.13-4.62Zm-9.31,309.51c-.13-.73-.32-1.47-1.2-1.56-.81-.08-1.39.33-1.43,1.2-.03.77.24,1.45,1.15,1.49.74.02,1.43-.17,1.48-1.13Zm-5.78-260.53c1.89-15.81-9.15-26.82-24.98-24.94-19.88,2.36-38.46,20.07-41.78,39.82-2.5,14.83,6.38,25.32,21.42,25.33,20.55.02,42.9-19.81,45.34-40.21Zm-4.81,258.11c1.58.02,2.14-.6,2.03-1.62-.09-.87-.41-1.78-1.5-1.89-1.03-.09-1.71.48-1.84,1.47-.16,1.26.49,1.98,1.31,2.04Zm-11.83-214.5c-.01-.8-.33-1.39-1.17-1.49-1.14-.13-1.62.64-1.66,1.59-.03.65.06,1.49,1.06,1.55,1.14.06,1.43-.83,1.77-1.65Zm-7.39,4.28c.1-1.07-.65-1.55-1.57-1.85-1.61.27-2.44,1.29-2.57,2.89-.11,1.25.43,2.15,1.77,2,1.72-.18,2.23-1.55,2.37-3.04Zm-42.48,103.51c2.47-.14,5.42-3.51,5.31-6.06-.08-2.01-1.94-3.78-3.94-3.76-2.53.03-5.82,3.84-5.6,6.47.17,1.96,2.08,3.48,4.23,3.35Zm-1.9-102.95c.27-2.88-1.13-4.84-3.64-5.06-3.3-.3-6.56,3.13-7.15,7.54-.36,2.64.89,4.45,3.23,4.69,3.33.35,7.18-3.31,7.56-7.17Zm-30.09,104.48c8.31-22.87,13.69-46.28,12.52-70.83-.25-5.28-1.13-10.46-2.91-15.46-5.07-14.19-15.78-17.22-27.59-7.8-5.16,4.13-9.17,9.28-12.9,14.67-.75,1.1-1.02,2.83-3.13,2.74-1.74-3.54-3.51-7.14-5.39-10.97-1.78,1.92-1.28,3.6-1.12,5.16.36,3.44,1.11,6.81,2.72,9.92.88,1.7,1.64,3.34-.62,4.93-3.26-2.69-4.32-7.22-7.8-10.53-.87,4.41.34,7.74,2.1,10.94.79,1.42,1.73,2.76,2.66,4.11.91,1.33.42,2.54-.53,3.42-1.19,1.1-1.89-.26-2.58-.93-2.22-2.11-4.38-4.27-6.53-6.72-.83,4.07,1.15,7.25,3.85,9.59,2.99,2.58,2.58,4.82,1.26,8.01-4.85,11.77-8.48,23.94-10.89,36.45-2.62,13.59-4.22,27.26-2.67,41.14.68,6.18,1.96,12.21,5.39,17.53,4.52,7.03,11.25,8.93,18.89,5.5,2.67-1.21,5.05-2.86,7.25-4.77,4.56-3.95,8.4-8.54,11.74-13.55,6.8-10.16,12.12-21.09,16.28-32.55Zm5.86,47.33c.16-1.19-.07-1.88-.92-2.02-1.34-.21-2.03.59-2.22,1.79-.16.96.07,1.98,1.22,2,1.27.02,1.77-1.02,1.92-1.77Zm-3.25-175.13c.07-2.98-2.44-5.22-5.71-5.12-3.53.12-6.78,3.34-6.62,6.56.14,2.72,2.57,4.9,5.43,4.87,3.52-.04,6.83-3.06,6.9-6.31Zm-.67,191.1c-.15-.69-.36-1.46-1.21-1.43-.8.03-1.14.75-1.18,1.48-.04.77.35,1.41,1.17,1.39.83-.01,1.09-.72,1.22-1.44Zm-4.19-172.43c.24-1.66-.76-2.85-2.18-3.33-1.51-.51-3.16-.57-3.53-.63-5.34-.06-9.07,1.07-12.33,3.56-1.5,1.15-2.58,2.65-1.53,4.65.87,1.66,2.49,2.17,4.16,1.66,4.31-1.29,8.63-2.47,13.07-3.24,1.38-.24,2.15-1.36,2.34-2.67Zm-4.35,177.27c1.25-.06,1.7-1.01,1.76-2.17-.07-.9-.24-1.89-1.38-1.73-1.11.16-1.73,1.05-1.84,2.21-.11,1.08.49,1.72,1.46,1.69Zm-38.44,15.14c.05-1.89-1-3.84-3.41-4.89-2.85-1.25-5.93-.14-7.28,2.57-2.32,4.64-2.09,9.24.59,10.87,1.49.9,3.08.83,4.66.19,2.92-1.16,5.42-4.86,5.44-8.74Zm-31.22-61.06c1.56.05,2.37-.95,2.28-2.4-.07-1.21-.99-1.86-2.22-2-1.36.08-1.89.93-1.88,2.16,0,1.19.48,2.19,1.82,2.24Z"/>
    <path d="m546.86,433.01c-.99,3.81-2.7,6.29-5.51,8.04-.63.39-1.34.55-1.95-.03-.41-.39-.64-.93-.32-1.45,1.75-2.78,3.4-5.7,7.78-6.56Z"/>
    <path d="m542.51,1.59c.62,1.31.11,2.45-.76,3.46-2.81,3.25-6.41,5.23-10.56,6.06-2.2.44-3.13-.72-2.58-2.75.97-3.58,6.87-8.07,10.81-8.11,1.08.05,2.44-.06,3.09,1.34Zm-9.64,6.57c2.75-1.07,5-2.06,6.6-4.72q-4.42.94-6.6,4.72Z"/>
    <path class="cls-1" d="m539.47,3.44c-1.6,2.66-3.85,3.65-6.6,4.72q2.18-3.78,6.6-4.72Z"/>
    <path d="m525.38,438.46c.26.37.53.73.8,1.09-1.37,3.33-4.47,5.09-7.48,6.74-3.87,2.11-7.9,4-12.42,3.47l-.54-1.77c6.54-3.17,13.09-6.35,19.64-9.53Z"/>
    <path d="m517.39,450.23c4.93-3.8,9.46-6.82,15.19-9.22-2.08,6.34-8.3,10.11-15.19,9.22Z"/>
    <path class="cls-1" d="m524.45,544.77c0,.71-.61,1.27-1.32,1.47-1.82.52-3.52.45-4.89-1.19,1.25-1.57,2.96-1.72,4.74-1.56.75.06,1.47.51,1.47,1.28Z"/>
    <path class="cls-4" d="m518.29,367.82c1.03.01,1.58.64,1.47,1.73-.13.81-.63,1.33-1.42,1.2-.93-.16-1.62-.74-1.57-1.8.05-.93.85-1.14,1.52-1.13Z"/>
    <path class="cls-1" d="m517.19,15.51c-1.04,2.45-3.07,2.8-4.7,3.61-15.88,7.84-32.78,12.75-49.84,17.17-9.33,2.41-18.49,5.29-27.1,9.72-3.56,1.83-6.96,3.93-9.8,6.81-3.76,3.8-5.04,8.26-3.79,13.48s3.52,9.94,6.91,14.07c3.8,4.63,7.81,9.1,11.59,13.75,6.83,8.38,6.72,9.18-1.65,15.95-8.19,6.63-16.46,13.17-24.59,19.86-4.48,3.69-4.62,5.43-1.17,10.02,2.64,3.5,5.7,6.63,9.34,9.09,11,7.42,19.61,17.41,27.89,27.45,8.64,10.47,13.52,23.01,14.96,36.8.92,8.81.75,17.37-2.23,25.79-1.83,5.17-4.93,9.25-9.47,12.28-5.83,3.91-12.12,6.52-19.22,7-1.84.12-3.62.04-5.41-.35-.79-.17-1.36-.57-.94-1.48.32-.69.86-1.33,1.64-1.22,1.18.16,2.52,2.09,3.3.94,1.27-1.87,2.92-2.23,4.73-3.03,1.57-.69,1.3-3.22,1.81-4.94.7-2.41,1.32-4.85,2.18-8.04,1.13,3.14-.17,5.68,1.41,7.72,1.49.09,1.42-1.07,1.6-1.8,1.51-6.18,2.75-12.41,3.45-18.73.25-2.2.17-2.4-2.73-2.41-1.42-.01-.73-.84-.82-1.26-.2-.89-.13-1.88-1.3-2.08-1.09-.19-1.66.51-2.06,1.37-.53,1.15-1.05,2.3-1.83,4.01-.16-1.27-.19-1.96-.34-2.63-.4-1.75-1.44-2.25-2.54-.72-.92,1.27-1.33,2.55-3,.78-.83-.88-2.03-.62-2.98.12-.72.57-1.28.48-1.78-.26-1.92-2.88-4.28-1.96-6.7-.81-4.1,1.95-8.2,3.9-12.32,5.79-2.86,1.32-3.17,1.12-4.02-1.99-1.04-3.81.09-7.17,2.18-10.31,2.54-3.79,5.68-7.08,8.85-10.34,2.53-2.6,5.2-5.09,7.63-7.78,4.46-4.91,5-8.9,1.2-14.24-4.62-6.5-9.14-13.11-14.82-18.81-5.5-5.54-10.86-11.23-16.2-16.93-2.75-2.94-4.93-6.28-6.08-10.21-1.78-6.06-.34-10.61,4.77-14.37,3.96-2.92,8.45-4.96,12.84-7.15,4.22-2.11,8.48-4.16,12.42-6.77,7.19-4.76,8.67-8.86,6.22-17.18-1.44-4.91-4.04-9.32-6.13-13.95-2.42-5.38-3.83-10.81-2.84-16.88,1.65-10.2,6.98-17.42,16.32-21.56,10.51-4.67,21.59-7.63,32.83-9.7,15.07-2.78,29.74-6.63,43.71-13.02,2.56-1.17,5.19-2.5,8.62-2.63Zm-63.16,213.16c.03-.75-.22-1.53-1.12-1.54-.41,0-1.06.43-1.21.81-1.7,4.52-2.64,9.16-1.93,14.05,2.81-4.09,4.04-8.56,4.26-13.32Z"/>
    <path class="cls-4" d="m506.64,378.05c.31.05.52.77.73,1.1-.27.8-.45,1.53-1.32,1.51-.55-.02-.9-.38-.82-1,.1-.87.23-1.81,1.41-1.61Z"/>
    <path d="m491.4,97.28c2.8-2.48,5.83-4.45,10.75-4.41-2.92,3.75-6.14,5.22-9.42,6.58-.67.27-1.51.07-1.75-.72-.12-.42.09-1.16.42-1.45Z"/>
    <path d="m497.46,375.68c1.04.2,1.42,1.03,1.24,1.99-.18.93-.82,1.51-1.84,1.5-1.07-.28-1.38-1.1-1.21-2.02.16-.91.73-1.67,1.81-1.47Z"/>
    <path d="m459.13,591.62c10.51.89,17.8,10.56,16.9,21.09-.63,7.18-6.02,12.52-14.03,13.65-2.33.33-4.4.7-6.52,2.09-7.19,4.69-17.39,3.01-22.72-3.38-5.78-6.93-5.71-17.48-.17-23.68,7.44-8.02,16.61-10.62,26.54-9.77Zm11.9,22.23c1.47-6.86-2.88-15.05-9.71-16.75-8.86-2.2-17.31-1.12-24.06,5.92-4.95,5.17-5.4,12.38-1.23,18.43,3.5,5.09,10.33,6.53,17.46,3.34-.98-1.87-2-3.39-2.6-5.06-1.04-2.86.31-5.67,2.97-6.67,2.59-.99,5,.55,6.22,3.67.65,1.67-.23,3.64,1.09,5.12,5.99-1.31,8.94-3.71,9.86-8Z"/>
    <path class="cls-5" d="m473.15,347.28c.01,3.28-3.48,6.32-6.98,6.06-2.86-.21-4.67-2.18-4.55-4.95.14-3.34,3.01-5.84,6.58-5.72,2.89.09,4.93,1.99,4.95,4.61Zm-3.96.81c.07-1.22-1-1.29-1.84-1.26-1.05.03-2.24.16-2.2,1.61.03,1.02.75,1.51,2.15,1.45.53-.42,1.82-.49,1.89-1.8Z"/>
    <path class="cls-1" d="m461.32,597.1c6.83,1.7,11.18,9.89,9.71,16.75-.92,4.29-3.87,6.69-9.86,8-1.32-1.48-.44-3.45-1.09-5.12-1.22-3.12-3.63-4.66-6.22-3.67-2.66,1-4.01,3.81-2.97,6.67.6,1.67,1.62,3.19,2.6,5.06-7.13,3.19-13.96,1.75-17.46-3.34-4.17-6.05-3.72-13.26,1.23-18.43,6.75-7.04,15.2-8.12,24.06-5.92Z"/>
    <path class="cls-5" d="m467.35,346.83c.84-.03,1.91.04,1.84,1.26-.07,1.31-1.36,1.38-1.89,1.8-1.4.06-2.12-.43-2.15-1.45-.04-1.45,1.15-1.58,2.2-1.61Z"/>
    <path d="m452.91,227.13c.9.01,1.15.79,1.12,1.54-.22,4.76-1.45,9.23-4.26,13.32-.71-4.89.23-9.53,1.93-14.05.15-.38.8-.81,1.21-.81Z"/>
    <path d="m422.01,525.72c15.12,5.89,25.38,24.51,21.83,40.32-1.93,8.56-6.73,15.22-15.16,18.61-1.69.68-2.53,1.79-3.43,3.2-10.93,17.34-36.01,20.52-50.83,6.46-8.17-7.75-12.53-17.19-12.41-29.86-.06-2.18.5-5.58,1.6-8.87,2.51-7.55,7.42-12.86,15.14-15.05,2.54-.72,3.9-2.2,5.36-4.13,9.09-12.07,23.82-16.17,37.9-10.68Zm17.36,38.08c2.33-13.69-7.57-29.62-20.72-34.12-10.86-3.72-25.58.31-30.7,10.78,7.13,3.23,10.68,8.03,9.48,12.82-1.14,4.58-5.74,8.13-9.95,7.69-5.75-.6-8.39-5.31-8.56-15.24-8.12,2.67-13.59,9.92-13.68,18.07-.13,11.42,4.31,20.8,12.71,28.39,3.87,3.5,8.4,5.81,13.58,6.45,10.88,1.34,19.79-3.18,27.87-9.87,1.11-.92,1.95-2.14,2.36-3.59-.54-1.28-1.93-1.59-2.81-2.48-2.44-2.44-3.71-5.34-3.5-8.82.14-2.32.95-4.34,3.19-5.3,2.11-.9,3.87.25,5.48,1.52,2.87,2.26,4,5.43,4.11,9.98,6.47-4.41,10-9.61,11.14-16.28Zm-15.62,15.22c.95-1.55-.31-3.62-3.41-5.68-.15,3.66.87,6.15,2.55,6.17.29.01.7-.24.86-.49Zm-33.7-23c1.93-1.11,3.43-2.66,2.73-5.23-.38-1.41-1.17-2.61-2.22-3.61-1.34-1.28-3-2.34-4.81-1.81-2.16.62-1.69,2.84-1.94,4.32-.09,1.87.15,3.43,1.17,4.79,1.31,1.77,2.99,2.73,5.07,1.54Z"/>
    <path d="m419.61,291.09c17.85,4.76,27.48,21.07,23.04,39.02-4.99,20.19-24.82,35.52-46.09,35.63-2.73,0-5.44-.06-8.13-.62-19.62-4.05-30.46-20.65-24.78-41.52,6.37-23.4,33.06-38.62,55.96-32.51Zm17.6,38.76c4.71-16.55-4.82-31.53-21.75-34.23-19.16-3.06-40.42,9.66-46.73,28.02-1.85,5.4-2.7,10.9-1.12,16.59,3.37,12.13,14.18,19.84,28,19.9,18.65.07,36.71-13.08,41.6-30.28Z"/>
    <path class="cls-1" d="m418.65,529.68c13.15,4.5,23.05,20.43,20.72,34.12-1.14,6.67-4.67,11.87-11.14,16.28-.11-4.55-1.24-7.72-4.11-9.98-1.61-1.27-3.37-2.42-5.48-1.52-2.24.96-3.05,2.98-3.19,5.3-.21,3.48,1.06,6.38,3.5,8.82.88.89,2.27,1.2,2.81,2.48-.41,1.45-1.25,2.67-2.36,3.59-8.08,6.69-16.99,11.21-27.87,9.87-5.18-.64-9.71-2.95-13.58-6.45-8.4-7.59-12.84-16.97-12.71-28.39.09-8.15,5.56-15.4,13.68-18.07.17,9.93,2.81,14.64,8.56,15.24,4.21.44,8.81-3.11,9.95-7.69,1.2-4.79-2.35-9.59-9.48-12.82,5.12-10.47,19.84-14.5,30.7-10.78Z"/>
    <path class="cls-5" d="m415.46,295.62c16.93,2.7,26.46,17.68,21.75,34.23-4.89,17.2-22.95,30.35-41.6,30.28-13.82-.06-24.63-7.77-28-19.9-1.58-5.69-.73-11.19,1.12-16.59,6.31-18.36,27.57-31.08,46.73-28.02Zm-31.36,19.4c.48-1.17-.39-1.76-1.36-1.65-.84.11-1.7.6-2.41,1.11-6.47,4.64-11.74,18.58-9.87,26.37.97,4.04,3.16,7.07,8.43,8.25-5.16-7.26-4.21-14.19-1.63-21.17,1.32-3.58,3.01-6.98,5.14-10.15.6-.9,1.29-1.77,1.7-2.76Z"/>
    <path class="cls-4" d="m436.61,368.75c-.17,1.69-1.05,2.9-2.82,3.26-.72.15-1.34-.25-1.44-1.13-.19-1.68,1.55-3.9,2.94-3.69.79.12,1.13.75,1.32,1.56Z"/>
    <path d="m439.18,458.66c-2.86,2.81-6.46,3.93-10.04,4.94-4.37,1.24-8.87,2-13.4,2.04-7.27.07-13.94,1.98-20.12,5.75-.57.35-1.14.94-2.02.44-.58-1.54.79-2.19,1.62-2.94,3.98-3.6,8.65-6.11,13.89-7.06,9.91-1.8,20.08-1.28,30.07-3.17Z"/>
    <path class="cls-1" d="m420.34,573.34c3.1,2.06,4.36,4.13,3.41,5.68-.16.25-.57.5-.86.49-1.68-.02-2.7-2.51-2.55-6.17Z"/>
    <path class="cls-4" d="m423.24,229.58c.79,1.94.48,4.05.12,6.15-.98,5.72-2.31,11.43-1.55,17.28.25,1.98-.88,2.56-2.15,3.25-3.19,1.74-6.34,3.57-9.6,5.16-22.22,10.84-43.49,23.37-64.53,36.3-2.78,1.7-5.76,3.07-8.68,4.53-.42.21-1.04.03-2.57.03,9.11-16.03,21.64-28.24,35.35-40.81.03,4.74-1.93,8.74,1.26,12.43,1.23-4.21,2.71-8.08,3.45-12.09,1.1-5.96,5.53-8.38,10.75-11.48-1.7,7.58-5.18,14.27-2.02,21.45,1.82-7.01,4.09-13.81,6.57-20.54,2.37-6.44,2.4-6.43,9.72-9.85.1,6.44-3.59,12.71-.3,19.36,1.81-3.22,2.02-6.51,2.77-9.62,3.45-14.29,3.55-14.49,17.02-20.43,1.28-.57,2.49-1.58,4.39-1.12Z"/>
    <path class="cls-2" d="m399.82,163.33c4.18,4.75,9.35,8.6,13.05,14.37-14.13,13.81-27.35,28.44-40.13,44.17-4.81-4.99-9.11-9.61-13.61-14.02-1.69-1.66-.91-2.76.07-4.17,4.74-6.87,9.45-13.77,15.04-19.98,6.43-7.14,12.81-14.35,20.06-20.69,2.86-2.51,3.02-2.52,5.52.32Z"/>
    <path class="cls-1" d="m392.78,550.79c.7,2.57-.8,4.12-2.73,5.23-2.08,1.19-3.76.23-5.07-1.54-1.02-1.36-1.26-2.92-1.17-4.79.25-1.48-.22-3.7,1.94-4.32,1.81-.53,3.47.53,4.81,1.81,1.05,1,1.84,2.2,2.22,3.61Z"/>
    <path d="m382.74,313.37c.97-.11,1.84.48,1.36,1.65-.41.99-1.1,1.86-1.7,2.76-2.13,3.17-3.82,6.57-5.14,10.15-2.58,6.98-3.53,13.91,1.63,21.17-5.27-1.18-7.46-4.21-8.43-8.25-1.87-7.79,3.4-21.73,9.87-26.37.71-.51,1.57-1,2.41-1.11Z"/>
    <path class="cls-4" d="m361.83,304.77c.76.14,1.01.84,1.12,1.55-.12.74-.47,1.32-1.26,1.41-1.11.12-1.64-.61-1.61-1.54.04-.95.71-1.61,1.75-1.42Z"/>
    <path class="cls-4" d="m351.7,373.53c.09.78-.15,1.39-.71,1.5-1,.29-1.27-.22-1.48-.7-.33-.79.05-1.55.68-1.81.7-.29,1.4.12,1.51,1.01Z"/>
    <path class="cls-2" d="m350.29,652.53c.16,1.08.38,2.18.33,3.25-.18,4,2.04,8.76-2.42,11.56-6.38,4.02-13.05,9.6-21.04,5.98-13-5.87-26.92-7.18-40.57-9.94-.18-.04-.36-.04-.54-.08-9.51-1.69-10.64-2.69-11.64-12.36-.71-6.86-.89-13.8,1.09-20.55,1.17-4.02,1.94-4.57,6.2-4.47,7.08.17,14.16.55,21.24.64,2.32.03,3.66.84,4.63,2.9,1,2.13,2.29,4.12,3.49,6.15.75,1.26,1.66,2.39,2.91,3.2.64.41,1.4.6,2.07.25.7-.38.81-1.21.61-1.91-.44-1.56-.88-3.15-1.54-4.62-1.42-3.15-2.88-6.28-4.48-9.33-9.11-17.4-16.61-35.53-24.64-53.42-.45-.99-1.03-1.93-.91-3.17,15.18-3.92,31.17-5.95,43.01-17.86,2.21,1.56,2.1,3.77,2.56,5.57,8.29,32.39,14.88,65.12,19.64,98.21Zm-25.32,14.26c.11-.02.17-.29.43-.77-1.76-1.78-3.75-2.99-6.48-2.35-.56.13-.79.77-.66,1.3.4,1.6,3.49,2.43,6.71,1.82Z"/>
    <path class="cls-1" d="m347.01,180.97c1.38,2.26.42,6.01.31,9.09-.06,1.9.48,4.1-1.78,5.34-.31.16-.51.44-.33,1.17,1.53,6.11.79,10.94-2.04,14.98-.28.39-.94.5-.71,1.23,1.97,6.21-2.18,11.19-3.6,16.67-1.55,5.94-4.56,11.44-7.71,16.76-.75,1.27-1.07,3.34-3.48,2.29-1.25-.54-1.17.87-.98,1.14,1.59,2.21.08,3.67-1.09,5.24-3.35,4.51-7.08,8.62-11.74,11.63-1.17-.82-.65-1.55-.41-2.12,5.01-12.08,8.01-24.83,12.22-37.18,1.95-5.72,1.73-5.92-2.77-9.68-2.3-1.92-5.27-3.15-6.91-6.21,4.5-2.83,8.69-5.71,13.12-8.16,3.4-1.88,4.73-4.46,5.06-8.26,1.01-11.77,1.56-23.53,1.16-35.34-.04-1.25,0-2.51,0-4.07,3.32.3,4.89,2.58,6.38,4.74,2.61,3.8,3.66,8.21,4.72,12.65.62,2.65-1.25,5.1.58,8.09Z"/>
    <path class="cls-1" d="m341.3,311.96c.39.76.35,1.38-.19,1.94-1.4,1.41-2.81,2.81-4.25,4.17-1.1,1.03-1.93-.01-2.9-.4-2.6-1.06-3.59-.63-3.5,1.77.05,1.47.72,2.91-1.08,3.68-2.71,1.15-4.84,4.25-8.31,2.84-2.03-.83-3.17-.38-3.59,1.67-.29,1.47-1.25,2.13-2.49,2.55-12.72,4.41-25.66,7.63-39.28,7.03-.27-.01-.52-.36-1.51-1.08,4.3-2.3,8.05-4.48,11.94-6.36,14.99-7.24,30.02-14.38,45.04-21.55,3.13-1.49,8.46.52,10.12,3.74Z"/>
    <path class="cls-5" d="m336.62,354.13c.02,3.17-2.6,6.06-5.58,6.13-2.73.06-4.71-1.86-4.8-4.67-.1-3.01,2.58-5.6,5.92-5.73,2.6-.1,4.43,1.66,4.46,4.27Zm-4.89,1.91c.66-.27,1.11-.78,1.02-1.65-.22-.81-.97-.71-1.61-.73-.84-.03-1.28.51-1.18,1.27.12.98.72,1.54,1.77,1.11Z"/>
    <path class="cls-5" d="m332.75,354.39c.09.87-.36,1.38-1.02,1.65-1.05.43-1.65-.13-1.77-1.11-.1-.76.34-1.3,1.18-1.27.64.02,1.39-.08,1.61.73Z"/>
    <path class="cls-1" d="m329.27,298.02c.32,2.17-.13,3.55-2.36,4.09-6.16,1.47-12.31,3.05-18.5,4.39-14.93,3.22-30.05,4.73-45.31,4.84-5.9.05-9.88-4.92-8.65-10.73.21-1.03.78-1.6,1.67-1.92,1.53-.55,3.06-1.12,4.64-1.53,6.08-1.58,6.08-1.55,7.94,4.33.1.33.38.6.68,1.04,1.98-.29,2.17-1.74,2.88-2.72,1.23-1.71,1.73-4.34,4.26-4.57,3.05-.28,6.16-.26,9.22,0,1.65.13,1.32,1.87,1.43,3.09.1,1.09.1,2.3,1.46,2.58,1.02.22,1.81-.5,2.12-1.33,1.64-4.34,5.09-4.22,8.89-4.11,8.7.26,17.4.96,26.1.41,1.73-.11,3.17-.22,3.53,2.15Z"/>
    <path class="cls-4" d="m324.54,73.79c1.18.16,2.02.91,1.79,2.14-.37,1.93-.91,4-3.13,4.62-1.3.37-1.95-.66-2.09-1.85-.24-2.13,1.63-4.82,3.43-4.91Z"/>
    <path d="m325.4,666.02c-.26.48-.32.75-.43.77-3.22.61-6.31-.22-6.71-1.82-.13-.53.1-1.17.66-1.3,2.73-.64,4.72.57,6.48,2.35Z"/>
    <path class="cls-5" d="m314.72,289.19c4.87-2.28,9.91-3.36,14.3,1.51-13.23,1.65-26.28-1.04-39.41-.8,6.34-2.44,12.85-2.42,19.16-.31,2.36.79,3.82.6,5.95-.4Z"/>
    <path class="cls-5" d="m289.13,341.86c18.61-3.09,35.12-8.52,50.61-19.77-11.88,16.23-31.09,24.93-50.61,19.77Z"/>
    <path d="m315.82,383.88c.88.09,1.07.83,1.2,1.56-.05.96-.74,1.15-1.48,1.13-.91-.04-1.18-.72-1.15-1.49.04-.87.62-1.28,1.43-1.2Z"/>
    <path d="m286.26,99.97c15.83-1.88,26.87,9.13,24.98,24.94-2.44,20.4-24.79,40.23-45.34,40.21-15.04-.01-23.92-10.5-21.42-25.33,3.32-19.75,21.9-37.46,41.78-39.82Zm16.94,32.44c1.63-3.47,2.56-7.18,2.56-11.06,0-8.9-5.3-14.73-14.13-15.57-3.47-.33-6.89-.06-10.24.91-12.67,3.66-22.04,11.54-28.64,22.79-2.3,3.94-3.71,8.26-3.87,12.92-.37,10.61,5.9,17.17,17.73,17.23.77-.09,2.8-.12,4.71-.62,14.78-3.87,25.39-12.81,31.88-26.6Z"/>
    <path class="cls-4" d="m308.46,381.4c.11,1.02-.45,1.64-2.03,1.62-.82-.06-1.47-.78-1.31-2.04.13-.99.81-1.56,1.84-1.47,1.09.11,1.41,1.02,1.5,1.89Z"/>
    <path class="cls-5" d="m305.76,121.35c0,3.88-.93,7.59-2.56,11.06-6.49,13.79-17.1,22.73-31.88,26.6-1.91.5-3.94.53-4.71.62-11.83-.06-18.1-6.62-17.73-17.23.16-4.66,1.57-8.98,3.87-12.92,6.6-11.25,15.97-19.13,28.64-22.79,3.35-.97,6.77-1.24,10.24-.91,8.83.84,14.13,6.67,14.13,15.57Zm-44.02,9.94c1.85-3.2,5.36-5.29,6.56-9.99-10.93,4.73-16.84,15.29-14.85,25.3.62,3.12,1.89,5.78,5.51,7.44-.7-4.17-1.3-7.86-1.18-11.62.12-4.16,1.96-7.65,3.96-11.13Z"/>
    <path d="m293.43,167.03c.84.1,1.16.69,1.17,1.49-.34.82-.63,1.71-1.77,1.65-1-.06-1.09-.9-1.06-1.55.04-.95.52-1.72,1.66-1.59Z"/>
    <path class="cls-5" d="m286.43,196.33c4.29,1.71,4.4,1.94,3.08,6.39-3.77,12.76-5.94,25.75-5.49,39.1.1,2.71.33,5.43.67,8.12.57,4.45.55,4.6-3.54,6.66-3.13,1.58-6.42,2.47-9.96,2.36-6.97-.11-11.97-3.63-15.57-9.33-5.03-7.96-5.6-16.79-4.01-25.71,1.77-9.96,6.42-18.47,14.81-24.49,6.08-4.36,12.76-5.99,20.01-3.1Zm-25.97,30.04c.69-4.17,3.75-7.64,3.86-12.25-5.85,2.29-9.73,9.35-9.92,17.44-.22,9.29,3.94,17.78,10.78,20.8-1.98-4.82-3.29-8.92-4.35-13.1-1.1-4.29-1.1-8.55-.37-12.89Z"/>
    <path class="cls-4" d="m285.64,170.95c.92.3,1.67.78,1.57,1.85-.14,1.49-.65,2.86-2.37,3.04-1.34.15-1.88-.75-1.77-2,.13-1.6.96-2.62,2.57-2.89Z"/>
    <path class="cls-5" d="m274.81,385.12c1.59,7.94.12,15.5-3.14,22.8-.95,2.12-2.29,3.23-4.83,3.64-19.19,3.09-37.12,9.64-53.64,20-4.61,2.9-4.7,2.76-8.76-.79-12.66-11.06-16.31-26.32-9.12-41.86,8.88-19.21,24.45-28.91,41.59-30.01,21.24-.06,34.71,10.28,37.9,26.22Zm-59.06-6.9c.54-.55.88-1.2.31-1.87-.5-.57-1.22-.73-1.98-.49-1.94.61-3.59,1.7-5.04,3.09-9.16,8.78-12.08,19.51-9.6,31.75.68,3.37,2.23,6.47,5.9,8.08.06-.76.25-1.32.12-1.8-4.03-14.48-1.09-27.2,9.5-38.02.25-.26.53-.48.79-.74Z"/>
    <path class="cls-4" d="m302.73,64.76c-22.36,15.86-42.37,32.72-64.87,46.12-9.91,5.91-20.45,10.09-31.56,13.01-.83.22-1.64.72-2.53.18,12.89-16.51,73.6-53.17,98.96-59.31Z"/>
    <path class="cls-1" d="m272.41,659.94c-9.37.12-10.21-.41-10.96-8.51-.59-6.49-.96-13.03.63-19.48,1.52-6.16,1.7-6.31,7.95-6.39.9,0,1.82-.12,2.92.63-3.61,10.95-3.93,22.15-.54,33.75Z"/>
    <path d="m267.03,504.9c1.32,1.91.76,3.24-.06,4.47-2.35,3.5-5.18,6.51-8.97,8.48-.83.43-1.75.56-2.44-.31-.35-.45-.45-1.07-.04-1.48,3.77-3.75,7.02-8.07,11.51-11.16Z"/>
    <path d="m268.3,121.3c-1.2,4.7-4.71,6.79-6.56,9.99-2,3.48-3.84,6.97-3.96,11.13-.12,3.76.48,7.45,1.18,11.62-3.62-1.66-4.89-4.32-5.51-7.44-1.99-10.01,3.92-20.57,14.85-25.3Z"/>
    <path d="m264.32,214.12c-.11,4.61-3.17,8.08-3.86,12.25-.73,4.34-.73,8.6.37,12.89,1.06,4.18,2.37,8.28,4.35,13.1-6.84-3.02-11-11.51-10.78-20.8.19-8.09,4.07-15.15,9.92-17.44Z"/>
    <path class="cls-5" d="m260.43,625.63c-4.46,10.53-4.16,21.04-1.86,31.66q-5.06-.19-6.03-3.82c-2.03-7.5-1.64-15.03-.37-22.59,1.06-6.35,1.75-6.72,8.26-5.25Z"/>
    <path class="cls-5" d="m250.04,270.25c.11,2.55-2.84,5.92-5.31,6.06-2.15.13-4.06-1.39-4.23-3.35-.22-2.63,3.07-6.44,5.6-6.47,2-.02,3.86,1.75,3.94,3.76Zm-5.7,3.62c1.44-.05,2.16-1.03,2.38-2.34-.25-.93-.94-1.07-1.64-.95-1.11.19-2.05.75-2.14,1.97-.06.83.71,1.34,1.4,1.32Z"/>
    <path d="m248.1,580.16c.12,5.56-1.98,9.04-6.72,10.75-2.01.72-3.4,1.69-4.6,3.39-2.39,3.42-5.92,5.3-9.86,6.37-8.15,2.22-16.58-4.32-16.22-12.78.27-6.19,2.8-11.34,8.81-13.85,1.83-.76,2.88-2.06,4.24-3.19,5.36-4.49,11.19-3.49,16.92-1.11,4.78,1.99,7.15,5.93,7.43,10.42Zm-8.29,7.54c4.49-2.65,5.67-6.2,3.49-10.28-3.05-5.71-14.05-7.15-18.42-2.34-1.09,1.21-2.06,2.35-3.62,3.11-4.79,2.33-7.22,8.92-5.11,13.26,2.56,5.28,7.65,6.81,13.34,3.97,1.79-.89,3.72-1.89,4.31-3.9.48-1.66-1.68-2.08-2.38-3.29-1.28-2.25-1.02-4.3.93-5.75,1.83-1.35,4.01-.91,5.57,1.36.8,1.16,1.27,2.56,1.89,3.86Z"/>
    <path class="cls-1" d="m250.05,624.9c-2.78,10.37-4.74,20.2-.5,30.67-3.63-.18-6.32-1.17-9.08-1.76-3.36-.72-6.75-1.3-10.12-1.93-1.65-.31-3.02-.6-3.09-2.91-.14-4.19-2.17-7.65-5.32-10.31-2.58-2.18-3.05-4.7-2.28-7.78.73-2.86,2-5.43,3.71-7.78,1.5-2.06,3.54-3.29,6.1-2.48,6.56,2.08,13.35,3.05,20.58,4.28Z"/>
    <path class="cls-5" d="m246.72,271.53c-.22,1.31-.94,2.29-2.38,2.34-.69.02-1.46-.49-1.4-1.32.09-1.22,1.03-1.78,2.14-1.97.7-.12,1.39.02,1.64.95Z"/>
    <path class="cls-1" d="m243.3,577.42c2.18,4.08,1,7.63-3.49,10.28-.62-1.3-1.09-2.7-1.89-3.86-1.56-2.27-3.74-2.71-5.57-1.36-1.95,1.45-2.21,3.5-.93,5.75.7,1.21,2.86,1.63,2.38,3.29-.59,2.01-2.52,3.01-4.31,3.9-5.69,2.84-10.78,1.31-13.34-3.97-2.11-4.34.32-10.93,5.11-13.26,1.56-.76,2.53-1.9,3.62-3.11,4.37-4.81,15.37-3.37,18.42,2.34Z"/>
    <path class="cls-5" d="m239.19,168.3c2.51.22,3.91,2.18,3.64,5.06-.38,3.86-4.23,7.52-7.56,7.17-2.34-.24-3.59-2.05-3.23-4.69.59-4.41,3.85-7.84,7.15-7.54Zm-.27,5.42c.04-.14-.06-.32-.26-1.17-1.88.78-3.3,1.43-3.22,3.46,0,.21.5.62.72.59,1.64-.23,2.33-1.46,2.76-2.88Z"/>
    <path class="cls-5" d="m238.66,172.55c.2.85.3,1.03.26,1.17-.43,1.42-1.12,2.65-2.76,2.88-.22.03-.71-.38-.72-.59-.08-2.03,1.34-2.68,3.22-3.46Z"/>
    <path class="cls-1" d="m243.7,678.18c-4.57-8.16-11-14.58-18.15-21.16,8.49,1.28,18.15,12.69,18.15,21.16Z"/>
    <path class="cls-1" d="m220.92,658.21c9.9,9.06,14.87,26.59,9.61,35.85-1.21-13.13-4.7-24.69-9.61-35.85Z"/>
    <path d="m225.26,207.01c1.17,24.55-4.21,47.96-12.52,70.83-4.16,11.46-9.48,22.39-16.28,32.55-3.34,5.01-7.18,9.6-11.74,13.55-2.2,1.91-4.58,3.56-7.25,4.77-7.64,3.43-14.37,1.53-18.89-5.5-3.43-5.32-4.71-11.35-5.39-17.53-1.55-13.88.05-27.55,2.67-41.14,2.41-12.51,6.04-24.68,10.89-36.45,1.32-3.19,1.73-5.43-1.26-8.01-2.7-2.34-4.68-5.52-3.85-9.59,2.15,2.45,4.31,4.61,6.53,6.72.69.67,1.39,2.03,2.58.93.95-.88,1.44-2.09.53-3.42-.93-1.35-1.87-2.69-2.66-4.11-1.76-3.2-2.97-6.53-2.1-10.94,3.48,3.31,4.54,7.84,7.8,10.53,2.26-1.59,1.5-3.23.62-4.93-1.61-3.11-2.36-6.48-2.72-9.92-.16-1.56-.66-3.24,1.12-5.16,1.88,3.83,3.65,7.43,5.39,10.97,2.11.09,2.38-1.64,3.13-2.74,3.73-5.39,7.74-10.54,12.9-14.67,11.81-9.42,22.52-6.39,27.59,7.8,1.78,5,2.66,10.18,2.91,15.46Zm-5.38,14.77c.39-5.81.38-11.62-.2-17.4-.5-5.07-1.51-10.05-3.94-14.62-1.4-2.64-3.24-4.82-6.27-5.67-2.7-.77-3.74-.06-3.54,2.82.28,4.17.35,8.33.26,12.51-.25,11.47-2.34,22.7-3.96,34.01-.8,5.6-3.36,8.79-8.22,10.95-4.06,1.81-8.25,3.45-12.25,6.47,3.03,1.98,5.66,3.87,8.45,5.49,3.3,1.91,4.38,4.48,3.46,8.2-1.43,5.81-2.47,11.72-3.96,17.51-3.24,12.62-6.66,25.19-10.25,38.7,3.3-1.99,5.33-4.32,7.21-6.73,2.46-3.13,5.42-6.15,6.85-9.75,1.42-3.56,4.04-6.14,5.71-9.42,4.03-7.94,7.36-16.17,10.53-24.48,1-2.61,1.16-4.77-1.32-6.63,1.63-.92,3.84.2,4.12-2.31.19-1.69,1.73-3.33-.06-5.01-1.27-1.2-.82-1.6.75-1.85,1.84-.3,1.78-2.09,2.07-3.44,1.15-5.5,2.45-10.99,3.19-16.55.33-2.4,2.24-5.31-.84-7.49-.45-.32-.2-1.01.39-1.22,2.09-.72,1.71-2.51,1.82-4.09Z"/>
    <path d="m223.95,615.25c.34,1.35-.68,1.81-1.57,2.48-4.97,3.77-6.81,9.26-7.72,15.07-.54,3.44.87,6.33,3.64,8.59,2.55,2.09,4.67,4.5,4.64,8.6-14.19-2.84-10.52-1.36-15.65-11.33-3.49-6.8-2.3-13.43,1.61-19.6,2.67-4.21,6.5-6.73,11.84-6.16,1.61.17,2.8.69,3.21,2.35Z"/>
    <path class="cls-1" d="m219.68,204.38c.58,5.78.59,11.59.2,17.4-.11,1.58.27,3.37-1.82,4.09-.59.21-.84.9-.39,1.22,3.08,2.18,1.17,5.09.84,7.49-.74,5.56-2.04,11.05-3.19,16.55-.29,1.35-.23,3.14-2.07,3.44-1.57.25-2.02.65-.75,1.85,1.79,1.68.25,3.32.06,5.01-.28,2.51-2.49,1.39-4.12,2.31,2.48,1.86,2.32,4.02,1.32,6.63-3.17,8.31-6.5,16.54-10.53,24.48-1.67,3.28-4.29,5.86-5.71,9.42-1.43,3.6-4.39,6.62-6.85,9.75-1.88,2.41-3.91,4.74-7.21,6.73,3.59-13.51,7.01-26.08,10.25-38.7,1.49-5.79,2.53-11.7,3.96-17.51.92-3.72-.16-6.29-3.46-8.2-2.79-1.62-5.42-3.51-8.45-5.49,4-3.02,8.19-4.66,12.25-6.47,4.86-2.16,7.42-5.35,8.22-10.95,1.62-11.31,3.71-22.54,3.96-34.01.09-4.18.02-8.34-.26-12.51-.2-2.88.84-3.59,3.54-2.82,3.03.85,4.87,3.03,6.27,5.67,2.43,4.57,3.44,9.55,3.94,14.62Z"/>
    <path class="cls-4" d="m217.68,323.15c.85.14,1.08.83.92,2.02-.15.75-.65,1.79-1.92,1.77-1.15-.02-1.38-1.04-1.22-2,.19-1.2.88-2,2.22-1.79Z"/>
    <path d="m216.06,376.35c.57.67.23,1.32-.31,1.87-.26.26-.54.48-.79.74-10.59,10.82-13.53,23.54-9.5,38.02.13.48-.06,1.04-.12,1.8-3.67-1.61-5.22-4.71-5.9-8.08-2.48-12.24.44-22.97,9.6-31.75,1.45-1.39,3.1-2.48,5.04-3.09.76-.24,1.48-.08,1.98.49Z"/>
    <path class="cls-5" d="m209.64,144.92c3.27-.1,5.78,2.14,5.71,5.12-.07,3.25-3.38,6.27-6.9,6.31-2.86.03-5.29-2.15-5.43-4.87-.16-3.22,3.09-6.44,6.62-6.56Zm-1.7,8.17c1.79,0,3.08-.71,3.46-2.52-.1-1-.78-1.3-1.5-1.24-1.52.15-2.77.87-3.17,2.43-.21.77.35,1.33,1.21,1.33Z"/>
    <path class="cls-1" d="m206.33,659.12q8.25-.5,7.62,3.87c-2.56-.57-4.99-1.28-7.62-3.87Z"/>
    <path class="cls-1" d="m212.75,667.14c1.22.37,1.44,1.5,1.07,2.64-.34,1.07-1.26,1.33-2.13.94-2.32-1.04-5.17-.93-7.64-3.5,3.3-1.04,6.02-.88,8.7-.08Z"/>
    <path d="m213.47,339.71c.85-.03,1.06.74,1.21,1.43-.13.72-.39,1.43-1.22,1.44-.82.02-1.21-.62-1.17-1.39.04-.73.38-1.45,1.18-1.48Z"/>
    <path class="cls-1" d="m208.49,673.11c1.64.41,4.75.36,4.27,2.08-.7,2.54-2.81-.52-4.44-.25-.74.13-1.61-.49-3.08-1,1.48-1.24,2.4-1.04,3.25-.83Z"/>
    <path class="cls-1" d="m214.94,654.27c-2.09,1.44-3.96.37-5.67.46-1.78.09-3.61.02-3.42-2.84,3.08.29,5.9.86,9.09,2.38Z"/>
    <path class="cls-4" d="m210.82,680.38c1.26.6,1.88,1.65,1.75,3.06-.63,6.46-.51,12.99-2.03,19.34-.07.28-.5.47-.8.72-1.83-.85-2.17-2.77-2.92-4.32-2.74-5.69-5.08-11.55-7.15-17.52-.66-1.89-.09-2.72,1.73-3,3.33-.51,6.44.29,9.42,1.72Z"/>
    <path d="m208.31,165.38c1.42.48,2.42,1.67,2.18,3.33-.19,1.31-.96,2.43-2.34,2.67-4.44.77-8.76,1.95-13.07,3.24-1.67.51-3.29,0-4.16-1.66-1.05-2,.03-3.5,1.53-4.65,3.26-2.49,6.99-3.62,12.33-3.56.37.06,2.02.12,3.53.63Z"/>
    <path class="cls-5" d="m211.4,150.57c-.38,1.81-1.67,2.52-3.46,2.52-.86,0-1.42-.56-1.21-1.33.4-1.56,1.65-2.28,3.17-2.43.72-.06,1.4.24,1.5,1.24Z"/>
    <path class="cls-4" d="m207.9,343.81c-.06,1.16-.51,2.11-1.76,2.17-.97.03-1.57-.61-1.46-1.69.11-1.16.73-2.05,1.84-2.21,1.14-.16,1.31.83,1.38,1.73Z"/>
    <path class="cls-3" d="m206.96,706.82c2.32,2.66,2.1,5.18.06,8.4-3.7-2.98-5.38-6.83-7.03-10.58-5.69-12.94-11.06-25.99-14.4-39.81-3.95-16.38-8.59-32.6-9.91-49.5-.28-3.63-.62-7.23.48-10.79.51-1.66,1.67-2.27,3.35-1.94,1.58.3,1.86,1.26,1.7,2.78-1.57,14.81.69,29.33,4.03,43.64,4.25,18.21,10.48,35.8,18.78,52.61.89,1.78,1.66,3.72,2.94,5.19Z"/>
    <path class="cls-4" d="m210.57,611.3c-4.14,3.07-6.29,6.34-7.71,10.08-.43,1.12-1.24,1.72-2.41,1.87-2.15.27-4.29.6-6.45.81-2.76.27-5.6-.32-7.89-1.5-2.62-1.35-1.17-4.58-1.56-6.95-.46-2.83-.35-5.76-.42-8.64-.05-2.34.93-3.34,3.35-2.53,7.27,2.45,14.43,5.24,23.09,6.86Z"/>
    <path class="cls-5" d="m202.72,638.86c1.13,2.11,2.26,4.22,3.42,6.39-1.51.95-2.83,1.8-4.65,2.95-.83-3.35-.26-6.27,1.23-9.34Z"/>
    <path class="cls-1" d="m202.22,663.24c.03.79-.55,1.34-1.23,1.61-.54.2-1.13-.12-1.29-.63-1.79-5.62-6.04-10.42-5.59-16.8.19-1.43.21-2.92.6-4.29,1.14-3.93,1.36-7.8-.14-11.69-.45-1.19-.96-2.48,1.02-2.89,1.59-.33,2.2.44,2.68,1.85,1.02,3.03,1.03,6.1.37,9.11-1.23,5.52-.54,10.74,1.69,15.87,1.08,2.5,1.79,5.11,1.89,7.86Z"/>
    <path class="cls-5" d="m196.08,662.95c1.99,3.94,3.3,8.17,2.69,12.64-1.07.21-1.45-.27-1.6-.75-2.04-6.26-4.39-12.4-5.8-18.85,2.99,1.31,3.46,4.49,4.71,6.96Z"/>
    <path class="cls-5" d="m192.17,633.39c.33,1.38.55,3.02.1,4.29-2.01,5.63-1.69,11.36-1.24,17.11-2.58-8.67-4.49-17.48-5.15-26.54,6.19-.46,5.42,1.46,6.29,5.14Z"/>
    <path d="m191.3,655.7c.02.1.04.19.07.29-.08-.05-.17-.09-.26-.12-.03-.36-.06-.72-.08-1.08.09.3.18.61.27.91Z"/>
    <path class="cls-4" d="m174.69,459.15c1.58,1.76.04,2.57-.75,3.57-2.86,3.62-2.97,3.63-6.06.39-5.64-5.93-10.75-12.31-15.75-18.78-1.81-2.34-2.14-4.36-.93-6.95,1.15-2.45,2.02-5.03,3.95-7.55,2.17,1.82,2.87,3.93,3.94,5.78,4.74,8.15,9.24,16.47,15.6,23.54Z"/>
    <path class="cls-5" d="m164.29,356.23c2.41,1.05,3.46,3,3.41,4.89-.02,3.88-2.52,7.58-5.44,8.74-1.58.64-3.17.71-4.66-.19-2.68-1.63-2.91-6.23-.59-10.87,1.35-2.71,4.43-3.82,7.28-2.57Zm-3.99,10.77c1.98.06,4.46-2.74,4.31-4.88-.12-1.76-1.24-2.52-2.93-2.52-2.28,0-3.25,1.43-3.17,4.64.08,1.25-.06,2.7,1.79,2.76Z"/>
    <path class="cls-5" d="m164.61,362.12c.15,2.14-2.33,4.94-4.31,4.88-1.85-.06-1.71-1.51-1.79-2.76-.08-3.21.89-4.64,3.17-4.64,1.69,0,2.81.76,2.93,2.52Z"/>
    <path d="m161.15,666.51c.16,7.24-2.36,13.15-8.47,17.29-4.14,2.79-8.46,4.27-13.21,1.47-1.42-.84-2.54-.55-4.01.07-14.28,6.02-28.49-5.05-26.65-20.74.25-2.15.71-4.31,1.38-6.36,1.03-3.11,2.4-6.11.83-9.42-.07-.15-.03-.36-.04-.54-.16-11.08,14.2-21.69,24.7-18.05,8,2.77,14.98,6.8,16.39,16.3.15,1,.76,1.61,1.49,2.16,5.96,4.49,7.4,10.89,7.59,17.82Zm-11.6,15.03c8.85-4.99,11.19-19.26,4.51-27.7-.74-.93-1.47-2.07-3.11-1.98-1.07,1.11-2.07,2.44-3.35,3.4-2.62,1.95-6.13,1.44-7.72-.94-1.37-2.05-.22-5.09,2.48-6.9,1.52-1.02,3.61-.61,5.2-2.33-3.21-7.12-9.34-10.54-16.58-11.25-7.3-.71-11.1,4.84-15.14,11.03,3.7-.36,6.51-1.09,8.12,2.15,1.09,2.21.79,4.23-.5,6.16-2.21,3.3-5.29,4.1-9.05,2.58-2.67,6.62-3,12.96-.18,19.26,2.62,5.84,10.71,9.9,16.73,8.54,2.21-.5,4.36-1.01,2.9-4.25-.48-1.05-.28-2.52-.06-3.74.52-2.75,2.72-4.79,4.63-4.53,2.19.3,3.18,2.34,2.75,5.68-.07.53-.23,1.06-.34,1.59-.65,3.32.34,4.66,3.57,4.78,1.89.08,3.54-.65,5.14-1.55Zm-3.06-30.63c.05-.1-.07-.28-.14-.54-1.53-.54-2.63-.02-3.25,1.49-.09.23.13.83.33.9,1.72.61,2.47-.51,3.06-1.85Zm-25.1-.58c.01-1.23-.49-1.96-1.47-2.11-1.35-.2-3.73,2.1-3.54,3.43.14.94.91,1.6,1.87,1.54,1.85-.13,2.76-1.36,3.14-2.86Z"/>
    <path class="cls-1" d="m154.06,653.84c6.68,8.44,4.34,22.71-4.51,27.7-1.6.9-3.25,1.63-5.14,1.55-3.23-.12-4.22-1.46-3.57-4.78.11-.53.27-1.06.34-1.59.43-3.34-.56-5.38-2.75-5.68-1.91-.26-4.11,1.78-4.63,4.53-.22,1.22-.42,2.69.06,3.74,1.46,3.24-.69,3.75-2.9,4.25-6.02,1.36-14.11-2.7-16.73-8.54-2.82-6.3-2.49-12.64.18-19.26,3.76,1.52,6.84.72,9.05-2.58,1.29-1.93,1.59-3.95.5-6.16-1.61-3.24-4.42-2.51-8.12-2.15,4.04-6.19,7.84-11.74,15.14-11.03,7.24.71,13.37,4.13,16.58,11.25-1.59,1.72-3.68,1.31-5.2,2.33-2.7,1.81-3.85,4.85-2.48,6.9,1.59,2.38,5.1,2.89,7.72.94,1.28-.96,2.28-2.29,3.35-3.4,1.64-.09,2.37,1.05,3.11,1.98Z"/>
    <path class="cls-4" d="m154.69,191.32c-.3,2.16-1.68,3.45-2.74,4.87-11.9,15.93-21.2,33.34-29.25,51.45-6.06,13.62-7.99,27.77-6.09,42.53,1.48,11.44.81,22.82-1.66,34.08-.37,1.67-.52,3.48-2.61,5.61-.54-4.18-1.15-7.48-1.37-10.8-1.13-17.04-1.44-34.11.05-51.11,1.93-21.95,8.73-42.54,18.99-62.01,3.14-5.95,6.72-11.61,10.47-17.19,1.24-1.84,2.17-2.55,4.13-.7,2.74,2.61,6.66,2.36,10.08,3.27Z"/>
    <path class="cls-1" d="m146.35,650.37c.07.26.19.44.14.54-.59,1.34-1.34,2.46-3.06,1.85-.2-.07-.42-.67-.33-.9.62-1.51,1.72-2.03,3.25-1.49Z"/>
    <path class="cls-4" d="m138.76,297.66c.09,1.45-.72,2.45-2.28,2.4-1.34-.05-1.82-1.05-1.82-2.24,0-1.23.52-2.08,1.88-2.16,1.23.14,2.15.79,2.22,2Z"/>
    <path class="cls-2" d="m126.58,572.08c3.54,8.45,5.69,17.15,4.65,27.09-2-2-2.19-4.25-2.93-6.14-1.88-4.75-3.78-9.46-6.97-13.51-1-1.27-2.15-2.71-4.07-1.75-1.66.82-1.17,2.44-1.1,3.87.75,15.06-2.36,29.23-9.88,42.36-2.12,3.71-4.93,6.73-8.72,8.76-.73.38-1.49,1.18-2.6.4,6.59-5.6,9.18-13.16,10.65-21.3.94-5.21,1.05-10.48,1.49-15.73.13-1.43-.07-2.91-.3-4.34-.28-1.71.1-4.46-2.04-4.5-2.35-.04-1.72,2.72-1.88,4.36-.4,4.15-.55,8.33-.9,12.49-.42,5.07-1.2,10.03-2.88,14.92-2.54,7.42-7.67,11.6-15.86,13.86.95-3.61,2.67-5.94,4.33-8.24,9.31-12.85,9.05-27.13,6.4-41.8-.06-.35-.21-.69-.33-1.03-.44-1.24-.94-2.46-2.56-2.35-1.27.08-1.84,1.01-2.17,2.11-.35,1.22-.73,2.44-.98,3.68-1.8,9-6.49,16.49-12.2,23.44-5.33,6.48-12.79,8.38-20.81,9.98.67-2.36,2.5-2.62,3.76-3.49,9.95-6.89,17.76-15.51,22.09-26.99,4.45-11.82,3.11-23.22-2.88-34.11-3.61-6.59-8.59-12.15-14.29-17.05-5.78-4.98-11.74-9.74-17.97-14.16-10.01-7.09-18.86-15.35-26.08-25.33-9.85-13.62-14.62-28.81-13.45-45.56,1.53-21.92,7.7-42.34,19.9-60.92,12.84-19.55,30.45-32.89,51.68-41.9,3.82-1.62,7.65-3.21,11.62-4.21,1.25,1.47.14,2.56-.26,3.65-1.8,4.95-3.62,9.89-4.86,15.02-.59,2.47-1.74,5.06-1.45,7.44.81,6.57-2.89,9.84-7.5,13.59-20.11,16.36-31.19,37.26-31.14,63.71.04,20.53,8.45,36.72,23.97,49.69,9.05,7.56,18.4,14.76,26.89,23.02,11.41,11.09,19.8,24.06,26.09,38.53,1.81,4.16,3.78,8.26,5.54,12.44ZM14.8,480.22c-.35-4.23.69-8.35-2.09-12.8-1.99,6.54-1.34,10.15,2.09,12.8Z"/>
    <path class="cls-1" d="m119.92,648.22c.98.15,1.48.88,1.47,2.11-.38,1.5-1.29,2.73-3.14,2.86-.96.06-1.73-.6-1.87-1.54-.19-1.33,2.19-3.63,3.54-3.43Z"/>
    <path d="m93.01,664.97c.02,5.65-5.52,11.15-11.22,11.13-6.28-.01-11.92-4.85-11.98-10.26-.08-7.06,5.48-13.32,11.7-13.18,5.93.13,11.48,6.07,11.5,12.31Zm-11.46,7.74c3.85-.14,7.39-3.67,7.34-7.33-.06-4.28-3.98-8.48-7.74-8.29-3.84.19-7.64,4.91-7.47,9.29.16,4.11,3.11,6.49,7.87,6.33Z"/>
    <path class="cls-1" d="m88.89,665.38c.05,3.66-3.49,7.19-7.34,7.33-4.76.16-7.71-2.22-7.87-6.33-.17-4.38,3.63-9.1,7.47-9.29,3.76-.19,7.68,4.01,7.74,8.29Z"/>
    <path d="m12.71,467.42c2.78,4.45,1.74,8.57,2.09,12.8-3.43-2.65-4.08-6.26-2.09-12.8Z"/>
  </g>
  <g>
    <rect class="cls-2" x="1002.66" y="481.25" width="33.29" height="33.29"/>
    <rect class="cls-4" x="1002.66" y="529.89" width="33.29" height="33.29"/>
    <rect class="cls-1" x="1002.66" y="433.72" width="33.29" height="33.29"/>
    <rect class="cls-3" x="1002.66" y="388.47" width="33.29" height="33.29"/>
    <rect class="cls-5" x="1002.66" y="343.21" width="33.29" height="33.29"/>
    <rect x="1002.66" y="297.96" width="33.29" height="33.29"/>
  </g>
</svg>